solid servoSproketSupportV2
facet normal -1.0 0.0 1.5243062067826476e-16
  outer loop
    vertex 47.0 0.0 50.0
    vertex 47.00000000000001 5.471555764792957 40.5435199947153
    vertex 46.99999999999999 0.0 13.000000000000007
  endloop
endfacet
facet normal -1.0 0.0 1.5243062067826476e-16
  outer loop
    vertex 47.00000000000001 5.471555764792957 40.5435199947153
    vertex 47.0 0.0 50.0
    vertex 47.00000000000001 5.681346652052679 41.050000000000004
  endloop
endfacet
facet normal -1.0 0.0 1.5243062067826476e-16
  outer loop
    vertex 47.00000000000001 5.681346652052679 41.050000000000004
    vertex 47.0 0.0 50.0
    vertex 47.00000000000001 6.0150757595082505 41.48492424049175
  endloop
endfacet
facet normal -1.0 0.0 1.5243062067826476e-16
  outer loop
    vertex 47.00000000000001 6.0150757595082505 41.48492424049175
    vertex 47.0 0.0 50.0
    vertex 47.0 15.0 50.0
  endloop
endfacet
facet normal -1.0 0.0 1.5243062067826476e-16
  outer loop
    vertex 46.99999999999999 0.0 13.000000000000007
    vertex 47.00000000000001 5.471555764792957 40.5435199947153
    vertex 47.00000000000001 5.4 40.0
  endloop
endfacet
facet normal -1.0 0.0 1.5243062067826476e-16
  outer loop
    vertex 47.00000000000001 6.0150757595082505 41.48492424049175
    vertex 47.0 15.0 50.0
    vertex 47.00000000000001 6.450000000000001 41.818653347947325
  endloop
endfacet
facet normal -1.0 0.0 1.5243062067826476e-16
  outer loop
    vertex 47.00000000000001 6.450000000000001 41.818653347947325
    vertex 47.0 15.0 50.0
    vertex 47.00000000000001 6.956480005284707 42.02844423520704
  endloop
endfacet
facet normal -1.0 0.0 1.5243062067826476e-16
  outer loop
    vertex 47.00000000000001 6.956480005284707 42.02844423520704
    vertex 47.0 15.0 50.0
    vertex 47.00000000000001 7.5 42.1
  endloop
endfacet
facet normal -1.0 0.0 1.5243062067826476e-16
  outer loop
    vertex 47.00000000000001 7.5 42.1
    vertex 47.0 15.0 50.0
    vertex 47.00000000000001 8.043519994715295 42.02844423520704
  endloop
endfacet
facet normal -1.0 0.0 1.5243062067826476e-16
  outer loop
    vertex 47.00000000000001 8.043519994715295 42.02844423520704
    vertex 47.0 15.0 50.0
    vertex 47.00000000000001 8.55 41.818653347947325
  endloop
endfacet
facet normal -1.0 0.0 1.5243062067826476e-16
  outer loop
    vertex 47.00000000000001 8.55 41.818653347947325
    vertex 47.0 15.0 50.0
    vertex 47.00000000000001 8.98492424049175 41.48492424049175
  endloop
endfacet
facet normal -1.0 0.0 1.5243062067826476e-16
  outer loop
    vertex 47.00000000000001 8.98492424049175 41.48492424049175
    vertex 47.0 15.0 50.0
    vertex 47.00000000000001 9.318653347947322 41.05
  endloop
endfacet
facet normal -1.0 0.0 1.5243062067826476e-16
  outer loop
    vertex 47.00000000000001 9.318653347947322 41.05
    vertex 47.0 15.0 50.0
    vertex 47.00000000000001 9.528444235207044 40.5435199947153
  endloop
endfacet
facet normal -1.0 0.0 1.5243062067826476e-16
  outer loop
    vertex 47.00000000000001 9.528444235207044 40.5435199947153
    vertex 47.0 15.0 50.0
    vertex 47.00000000000001 9.600000000000001 40.0
  endloop
endfacet
facet normal -1.0 0.0 1.5243062067826476e-16
  outer loop
    vertex 47.00000000000001 9.600000000000001 40.0
    vertex 47.0 15.0 50.0
    vertex 47.00000000000001 9.600000000000001 22.000000000000004
  endloop
endfacet
facet normal -1.0 0.0 1.5243062067826476e-16
  outer loop
    vertex 46.99999999999999 0.0 13.000000000000007
    vertex 47.00000000000001 6.0150757595082505 20.51507575950825
    vertex 46.99999999999999 15.0 13.000000000000007
  endloop
endfacet
facet normal -1.0 0.0 1.5243062067826476e-16
  outer loop
    vertex 47.00000000000001 6.0150757595082505 20.51507575950825
    vertex 46.99999999999999 0.0 13.000000000000007
    vertex 47.00000000000001 5.681346652052679 20.949999999999996
  endloop
endfacet
facet normal -1.0 0.0 1.5243062067826476e-16
  outer loop
    vertex 47.00000000000001 5.681346652052679 20.949999999999996
    vertex 46.99999999999999 0.0 13.000000000000007
    vertex 47.00000000000001 5.471555764792957 21.456480005284707
  endloop
endfacet
facet normal -1.0 0.0 1.5243062067826476e-16
  outer loop
    vertex 47.00000000000001 5.471555764792957 21.456480005284707
    vertex 46.99999999999999 0.0 13.000000000000007
    vertex 47.00000000000001 5.4 22.000000000000004
  endloop
endfacet
facet normal -1.0 0.0 1.5243062067826476e-16
  outer loop
    vertex 47.00000000000001 5.4 22.000000000000004
    vertex 46.99999999999999 0.0 13.000000000000007
    vertex 47.00000000000001 5.4 40.0
  endloop
endfacet
facet normal -1.0 0.0 1.5243062067826476e-16
  outer loop
    vertex 46.99999999999999 15.0 13.000000000000007
    vertex 47.00000000000001 6.0150757595082505 20.51507575950825
    vertex 47.00000000000001 6.450000000000001 20.18134665205268
  endloop
endfacet
facet normal -1.0 0.0 1.5243062067826476e-16
  outer loop
    vertex 46.99999999999999 15.0 13.000000000000007
    vertex 47.00000000000001 6.450000000000001 20.18134665205268
    vertex 47.00000000000001 6.956480005284707 19.97155576479296
  endloop
endfacet
facet normal -1.0 0.0 1.5243062067826476e-16
  outer loop
    vertex 46.99999999999999 15.0 13.000000000000007
    vertex 47.00000000000001 6.956480005284707 19.97155576479296
    vertex 47.00000000000001 7.500000000000002 19.9
  endloop
endfacet
facet normal -1.0 0.0 1.5243062067826476e-16
  outer loop
    vertex 46.99999999999999 15.0 13.000000000000007
    vertex 47.00000000000001 7.500000000000002 19.9
    vertex 47.00000000000001 8.043519994715293 19.97155576479296
  endloop
endfacet
facet normal -1.0 0.0 1.5243062067826476e-16
  outer loop
    vertex 46.99999999999999 15.0 13.000000000000007
    vertex 47.00000000000001 8.043519994715293 19.97155576479296
    vertex 47.00000000000001 8.55 20.18134665205268
  endloop
endfacet
facet normal -1.0 0.0 1.5243062067826476e-16
  outer loop
    vertex 46.99999999999999 15.0 13.000000000000007
    vertex 47.00000000000001 8.55 20.18134665205268
    vertex 47.00000000000001 8.98492424049175 20.51507575950825
  endloop
endfacet
facet normal -1.0 0.0 1.5243062067826476e-16
  outer loop
    vertex 46.99999999999999 15.0 13.000000000000007
    vertex 47.00000000000001 8.98492424049175 20.51507575950825
    vertex 47.00000000000001 9.318653347947322 20.949999999999996
  endloop
endfacet
facet normal -1.0 0.0 1.5243062067826476e-16
  outer loop
    vertex 46.99999999999999 15.0 13.000000000000007
    vertex 47.00000000000001 9.318653347947322 20.949999999999996
    vertex 47.00000000000001 9.528444235207044 21.456480005284707
  endloop
endfacet
facet normal -1.0 0.0 1.5243062067826476e-16
  outer loop
    vertex 46.99999999999999 15.0 13.000000000000007
    vertex 47.00000000000001 9.528444235207044 21.456480005284707
    vertex 47.00000000000001 9.600000000000001 22.000000000000004
  endloop
endfacet
facet normal -1.0 0.0 1.5243062067826476e-16
  outer loop
    vertex 46.99999999999999 15.0 13.000000000000007
    vertex 47.00000000000001 9.600000000000001 22.000000000000004
    vertex 47.0 15.0 50.0
  endloop
endfacet
facet normal 0.0 0.0 1.0
  outer loop
    vertex 50.0 0.0 50.0
    vertex 47.0 15.0 50.0
    vertex 47.0 0.0 50.0
  endloop
endfacet
facet normal 0.0 0.0 1.0
  outer loop
    vertex 47.0 15.0 50.0
    vertex 50.0 0.0 50.0
    vertex 50.0 15.0 50.0
  endloop
endfacet
facet normal 1.0 -0.0 -0.0
  outer loop
    vertex 50.0 0.0 1.4099832412739487e-15
    vertex 50.0 5.471555764792957 21.456480005284707
    vertex 50.0 0.0 50.0
  endloop
endfacet
facet normal 1.0 -0.0 -0.0
  outer loop
    vertex 50.0 5.471555764792957 21.456480005284707
    vertex 50.0 0.0 1.4099832412739487e-15
    vertex 50.0 5.681346652052679 20.949999999999996
  endloop
endfacet
facet normal 1.0 -0.0 -0.0
  outer loop
    vertex 50.0 5.681346652052679 20.949999999999996
    vertex 50.0 0.0 1.4099832412739487e-15
    vertex 50.0 15.0 1.4099832412739487e-15
  endloop
endfacet
facet normal 1.0 -0.0 -0.0
  outer loop
    vertex 50.0 0.0 50.0
    vertex 50.0 5.471555764792957 21.456480005284707
    vertex 50.0 5.4 22.000000000000004
  endloop
endfacet
facet normal 1.0 -0.0 -0.0
  outer loop
    vertex 50.0 5.681346652052679 20.949999999999996
    vertex 50.0 15.0 1.4099832412739487e-15
    vertex 50.0 6.0150757595082505 20.51507575950825
  endloop
endfacet
facet normal 1.0 -0.0 -0.0
  outer loop
    vertex 50.0 6.0150757595082505 20.51507575950825
    vertex 50.0 15.0 1.4099832412739487e-15
    vertex 50.0 6.450000000000001 20.18134665205268
  endloop
endfacet
facet normal 1.0 -0.0 -0.0
  outer loop
    vertex 50.0 6.450000000000001 20.18134665205268
    vertex 50.0 15.0 1.4099832412739487e-15
    vertex 50.0 6.956480005284707 19.97155576479296
  endloop
endfacet
facet normal 1.0 -0.0 -0.0
  outer loop
    vertex 50.0 6.956480005284707 19.97155576479296
    vertex 50.0 15.0 1.4099832412739487e-15
    vertex 50.0 7.500000000000002 19.9
  endloop
endfacet
facet normal 1.0 -0.0 -0.0
  outer loop
    vertex 50.0 7.500000000000002 19.9
    vertex 50.0 15.0 1.4099832412739487e-15
    vertex 50.0 8.043519994715293 19.97155576479296
  endloop
endfacet
facet normal 1.0 -0.0 -0.0
  outer loop
    vertex 50.0 8.043519994715293 19.97155576479296
    vertex 50.0 15.0 1.4099832412739487e-15
    vertex 50.0 8.55 20.18134665205268
  endloop
endfacet
facet normal 1.0 -0.0 -0.0
  outer loop
    vertex 50.0 8.55 20.18134665205268
    vertex 50.0 15.0 1.4099832412739487e-15
    vertex 50.0 8.98492424049175 20.51507575950825
  endloop
endfacet
facet normal 1.0 -0.0 -0.0
  outer loop
    vertex 50.0 8.98492424049175 20.51507575950825
    vertex 50.0 15.0 1.4099832412739487e-15
    vertex 50.0 9.318653347947322 20.949999999999996
  endloop
endfacet
facet normal 1.0 -0.0 -0.0
  outer loop
    vertex 50.0 9.318653347947322 20.949999999999996
    vertex 50.0 15.0 1.4099832412739487e-15
    vertex 50.0 9.528444235207044 21.456480005284707
  endloop
endfacet
facet normal 1.0 -0.0 -0.0
  outer loop
    vertex 50.0 9.528444235207044 21.456480005284707
    vertex 50.0 15.0 1.4099832412739487e-15
    vertex 50.0 9.600000000000001 22.000000000000004
  endloop
endfacet
facet normal 1.0 -0.0 -0.0
  outer loop
    vertex 50.0 9.600000000000001 22.000000000000004
    vertex 50.0 15.0 1.4099832412739487e-15
    vertex 50.0 9.600000000000001 40.0
  endloop
endfacet
facet normal 1.0 -0.0 -0.0
  outer loop
    vertex 50.0 0.0 50.0
    vertex 50.0 6.0150757595082505 41.48492424049175
    vertex 50.0 15.0 50.0
  endloop
endfacet
facet normal 1.0 -0.0 -0.0
  outer loop
    vertex 50.0 6.0150757595082505 41.48492424049175
    vertex 50.0 0.0 50.0
    vertex 50.0 5.681346652052679 41.050000000000004
  endloop
endfacet
facet normal 1.0 -0.0 -0.0
  outer loop
    vertex 50.0 5.681346652052679 41.050000000000004
    vertex 50.0 0.0 50.0
    vertex 50.0 5.471555764792957 40.5435199947153
  endloop
endfacet
facet normal 1.0 -0.0 -0.0
  outer loop
    vertex 50.0 5.471555764792957 40.5435199947153
    vertex 50.0 0.0 50.0
    vertex 50.0 5.4 40.0
  endloop
endfacet
facet normal 1.0 -0.0 -0.0
  outer loop
    vertex 50.0 5.4 40.0
    vertex 50.0 0.0 50.0
    vertex 50.0 5.4 22.000000000000004
  endloop
endfacet
facet normal 1.0 -0.0 -0.0
  outer loop
    vertex 50.0 15.0 50.0
    vertex 50.0 6.0150757595082505 41.48492424049175
    vertex 50.0 6.450000000000001 41.818653347947325
  endloop
endfacet
facet normal 1.0 -0.0 -0.0
  outer loop
    vertex 50.0 15.0 50.0
    vertex 50.0 6.450000000000001 41.818653347947325
    vertex 50.0 6.956480005284707 42.02844423520704
  endloop
endfacet
facet normal 1.0 -0.0 -0.0
  outer loop
    vertex 50.0 15.0 50.0
    vertex 50.0 6.956480005284707 42.02844423520704
    vertex 50.0 7.5 42.1
  endloop
endfacet
facet normal 1.0 -0.0 -0.0
  outer loop
    vertex 50.0 15.0 50.0
    vertex 50.0 7.5 42.1
    vertex 50.0 8.043519994715295 42.02844423520704
  endloop
endfacet
facet normal 1.0 -0.0 -0.0
  outer loop
    vertex 50.0 15.0 50.0
    vertex 50.0 8.043519994715295 42.02844423520704
    vertex 50.0 8.55 41.818653347947325
  endloop
endfacet
facet normal 1.0 -0.0 -0.0
  outer loop
    vertex 50.0 15.0 50.0
    vertex 50.0 8.55 41.818653347947325
    vertex 50.0 8.98492424049175 41.48492424049175
  endloop
endfacet
facet normal 1.0 -0.0 -0.0
  outer loop
    vertex 50.0 15.0 50.0
    vertex 50.0 8.98492424049175 41.48492424049175
    vertex 50.0 9.318653347947322 41.05
  endloop
endfacet
facet normal 1.0 -0.0 -0.0
  outer loop
    vertex 50.0 15.0 50.0
    vertex 50.0 9.318653347947322 41.05
    vertex 50.0 9.528444235207044 40.5435199947153
  endloop
endfacet
facet normal 1.0 -0.0 -0.0
  outer loop
    vertex 50.0 15.0 50.0
    vertex 50.0 9.528444235207044 40.5435199947153
    vertex 50.0 9.600000000000001 40.0
  endloop
endfacet
facet normal 1.0 -0.0 -0.0
  outer loop
    vertex 50.0 15.0 50.0
    vertex 50.0 9.600000000000001 40.0
    vertex 50.0 15.0 1.4099832412739487e-15
  endloop
endfacet
facet normal -0.0 1.0 -0.0
  outer loop
    vertex 47.00000000000001 5.4 40.0
    vertex 50.0 5.4 22.000000000000004
    vertex 47.00000000000001 5.4 22.000000000000004
  endloop
endfacet
facet normal -0.0 1.0 -0.0
  outer loop
    vertex 50.0 5.4 22.000000000000004
    vertex 47.00000000000001 5.4 40.0
    vertex 50.0 5.4 40.0
  endloop
endfacet
facet normal 0.0 0.0 -1.0
  outer loop
    vertex 19.999999999999996 15.0 1.4099832412739487e-15
    vertex 36.022667025359354 8.431748562369075 0.0
    vertex 35.9 7.5 0.0
  endloop
endfacet
facet normal 0.0 0.0 -1.0
  outer loop
    vertex 36.022667025359354 8.431748562369075 0.0
    vertex 19.999999999999996 15.0 1.4099832412739487e-15
    vertex 36.382308546376024 9.3 0.0
  endloop
endfacet
facet normal 0.0 0.0 -1.0
  outer loop
    vertex 36.382308546376024 9.3 0.0
    vertex 19.999999999999996 15.0 1.4099832412739487e-15
    vertex 36.954415587728434 10.045584412271571 0.0
  endloop
endfacet
facet normal 0.0 0.0 -1.0
  outer loop
    vertex 36.954415587728434 10.045584412271571 0.0
    vertex 19.999999999999996 15.0 1.4099832412739487e-15
    vertex 37.7 10.617691453623978 0.0
  endloop
endfacet
facet normal 0.0 0.0 -1.0
  outer loop
    vertex 37.7 10.617691453623978 0.0
    vertex 19.999999999999996 15.0 1.4099832412739487e-15
    vertex 38.56825143763093 10.977332974640646 0.0
  endloop
endfacet
facet normal 0.0 0.0 -1.0
  outer loop
    vertex 38.56825143763093 10.977332974640646 0.0
    vertex 19.999999999999996 15.0 1.4099832412739487e-15
    vertex 50.0 15.0 1.4099832412739487e-15
  endloop
endfacet
facet normal 0.0 0.0 -1.0
  outer loop
    vertex 38.56825143763093 10.977332974640646 0.0
    vertex 50.0 15.0 1.4099832412739487e-15
    vertex 39.5 11.1 0.0
  endloop
endfacet
facet normal 0.0 0.0 -1.0
  outer loop
    vertex 39.5 11.1 0.0
    vertex 50.0 15.0 1.4099832412739487e-15
    vertex 40.43174856236908 10.977332974640644 0.0
  endloop
endfacet
facet normal 0.0 0.0 -1.0
  outer loop
    vertex 40.43174856236908 10.977332974640644 0.0
    vertex 50.0 15.0 1.4099832412739487e-15
    vertex 41.300000000000004 10.617691453623978 0.0
  endloop
endfacet
facet normal 0.0 0.0 -1.0
  outer loop
    vertex 41.300000000000004 10.617691453623978 0.0
    vertex 50.0 15.0 1.4099832412739487e-15
    vertex 42.045584412271566 10.045584412271571 0.0
  endloop
endfacet
facet normal 0.0 0.0 -1.0
  outer loop
    vertex 42.045584412271566 10.045584412271571 0.0
    vertex 50.0 15.0 1.4099832412739487e-15
    vertex 42.61769145362398 9.3 0.0
  endloop
endfacet
facet normal 0.0 0.0 -1.0
  outer loop
    vertex 42.61769145362398 9.3 0.0
    vertex 50.0 15.0 1.4099832412739487e-15
    vertex 42.977332974640646 8.431748562369075 0.0
  endloop
endfacet
facet normal 0.0 0.0 -1.0
  outer loop
    vertex 42.977332974640646 8.431748562369075 0.0
    vertex 50.0 15.0 1.4099832412739487e-15
    vertex 43.1 7.5 0.0
  endloop
endfacet
facet normal 0.0 0.0 -1.0
  outer loop
    vertex 2.8199664825478975e-15 17.000000149011615 1.4099832412739487e-15
    vertex 50.0 0.0 1.4099832412739487e-15
    vertex 0.0 0.0 1.4099832412739487e-15
  endloop
endfacet
facet normal 0.0 0.0 -1.0
  outer loop
    vertex 50.0 0.0 1.4099832412739487e-15
    vertex 2.8199664825478975e-15 17.000000149011615 1.4099832412739487e-15
    vertex 38.56825143763092 4.022667025359356 0.0
  endloop
endfacet
facet normal 0.0 0.0 -1.0
  outer loop
    vertex 38.56825143763092 4.022667025359356 0.0
    vertex 2.8199664825478975e-15 17.000000149011615 1.4099832412739487e-15
    vertex 0.3407417724624421 19.58819058296486 1.4099832412739487e-15
  endloop
endfacet
facet normal 0.0 0.0 -1.0
  outer loop
    vertex 38.56825143763092 4.022667025359356 0.0
    vertex 0.3407417724624421 19.58819058296486 1.4099832412739487e-15
    vertex 37.699999999999996 4.382308546376023 0.0
  endloop
endfacet
facet normal 0.0 0.0 -1.0
  outer loop
    vertex 37.699999999999996 4.382308546376023 0.0
    vertex 0.3407417724624421 19.58819058296486 1.4099832412739487e-15
    vertex 1.3397460242437875 22.00000010753987 1.4099832412739487e-15
  endloop
endfacet
facet normal 0.0 0.0 -1.0
  outer loop
    vertex 37.699999999999996 4.382308546376023 0.0
    vertex 1.3397460242437875 22.00000010753987 1.4099832412739487e-15
    vertex 2.928932267159869 24.071067890890816 1.4099832412739487e-15
  endloop
endfacet
facet normal 0.0 0.0 -1.0
  outer loop
    vertex 37.699999999999996 4.382308546376023 0.0
    vertex 2.928932267159869 24.071067890890816 1.4099832412739487e-15
    vertex 19.999999999999996 15.0 1.4099832412739487e-15
  endloop
endfacet
facet normal 0.0 0.0 -1.0
  outer loop
    vertex 19.999999999999996 15.0 1.4099832412739487e-15
    vertex 2.928932267159869 24.071067890890816 1.4099832412739487e-15
    vertex 5.000000086031895 25.66025408751492 1.4099832412739487e-15
  endloop
endfacet
facet normal 0.0 0.0 -1.0
  outer loop
    vertex 19.999999999999996 15.0 1.4099832412739487e-15
    vertex 5.000000086031895 25.66025408751492 1.4099832412739487e-15
    vertex 7.4118096329363885 26.659258285388127 1.4099832412739487e-15
  endloop
endfacet
facet normal 0.0 0.0 -1.0
  outer loop
    vertex 19.999999999999996 15.0 1.4099832412739487e-15
    vertex 7.4118096329363885 26.659258285388127 1.4099832412739487e-15
    vertex 10.000000074505806 27.0 1.4099832412739487e-15
  endloop
endfacet
facet normal 0.0 0.0 -1.0
  outer loop
    vertex 19.999999999999996 15.0 1.4099832412739487e-15
    vertex 10.000000074505806 27.0 1.4099832412739487e-15
    vertex 12.588190510997775 26.659258246821082 1.4099832412739487e-15
  endloop
endfacet
facet normal 0.0 0.0 -1.0
  outer loop
    vertex 19.999999999999996 15.0 1.4099832412739487e-15
    vertex 12.588190510997775 26.659258246821082 1.4099832412739487e-15
    vertex 15.000000043015945 25.66025401300912 1.4099832412739487e-15
  endloop
endfacet
facet normal 0.0 0.0 -1.0
  outer loop
    vertex 19.999999999999996 15.0 1.4099832412739487e-15
    vertex 15.000000043015945 25.66025401300912 1.4099832412739487e-15
    vertex 17.071067838207252 24.0710677855237 1.4099832412739487e-15
  endloop
endfacet
facet normal 0.0 0.0 -1.0
  outer loop
    vertex 19.999999999999996 15.0 1.4099832412739487e-15
    vertex 17.071067838207252 24.0710677855237 1.4099832412739487e-15
    vertex 18.660254050262015 21.999999978492028 1.4099832412739487e-15
  endloop
endfacet
facet normal 0.0 0.0 -1.0
  outer loop
    vertex 19.999999999999996 15.0 1.4099832412739487e-15
    vertex 18.660254050262015 21.999999978492028 1.4099832412739487e-15
    vertex 19.6592582661046 19.588190439030694 1.4099832412739487e-15
  endloop
endfacet
facet normal 0.0 0.0 -1.0
  outer loop
    vertex 19.999999999999996 15.0 1.4099832412739487e-15
    vertex 19.6592582661046 19.588190439030694 1.4099832412739487e-15
    vertex 19.999999999999996 17.000000000000004 1.4099832412739487e-15
  endloop
endfacet
facet normal 0.0 0.0 -1.0
  outer loop
    vertex 37.699999999999996 4.382308546376023 0.0
    vertex 19.999999999999996 15.0 1.4099832412739487e-15
    vertex 36.95441558772843 4.954415587728431 0.0
  endloop
endfacet
facet normal 0.0 0.0 -1.0
  outer loop
    vertex 36.95441558772843 4.954415587728431 0.0
    vertex 19.999999999999996 15.0 1.4099832412739487e-15
    vertex 36.382308546376024 5.700000000000002 0.0
  endloop
endfacet
facet normal 0.0 0.0 -1.0
  outer loop
    vertex 36.382308546376024 5.700000000000002 0.0
    vertex 19.999999999999996 15.0 1.4099832412739487e-15
    vertex 36.022667025359354 6.568251437630927 0.0
  endloop
endfacet
facet normal 0.0 0.0 -1.0
  outer loop
    vertex 36.022667025359354 6.568251437630927 0.0
    vertex 19.999999999999996 15.0 1.4099832412739487e-15
    vertex 35.9 7.5 0.0
  endloop
endfacet
facet normal 0.0 0.0 -1.0
  outer loop
    vertex 50.0 0.0 1.4099832412739487e-15
    vertex 38.56825143763092 4.022667025359356 0.0
    vertex 39.5 3.9000000000000012 0.0
  endloop
endfacet
facet normal 0.0 0.0 -1.0
  outer loop
    vertex 50.0 0.0 1.4099832412739487e-15
    vertex 39.5 3.9000000000000012 0.0
    vertex 40.43174856236907 4.022667025359355 0.0
  endloop
endfacet
facet normal 0.0 0.0 -1.0
  outer loop
    vertex 50.0 0.0 1.4099832412739487e-15
    vertex 40.43174856236907 4.022667025359355 0.0
    vertex 41.3 4.38230854637602 0.0
  endloop
endfacet
facet normal 0.0 0.0 -1.0
  outer loop
    vertex 50.0 0.0 1.4099832412739487e-15
    vertex 41.3 4.38230854637602 0.0
    vertex 42.045584412271566 4.9544155877284295 0.0
  endloop
endfacet
facet normal 0.0 0.0 -1.0
  outer loop
    vertex 50.0 0.0 1.4099832412739487e-15
    vertex 42.045584412271566 4.9544155877284295 0.0
    vertex 42.61769145362398 5.699999999999999 0.0
  endloop
endfacet
facet normal 0.0 0.0 -1.0
  outer loop
    vertex 50.0 0.0 1.4099832412739487e-15
    vertex 42.61769145362398 5.699999999999999 0.0
    vertex 42.977332974640646 6.568251437630923 0.0
  endloop
endfacet
facet normal 0.0 0.0 -1.0
  outer loop
    vertex 50.0 0.0 1.4099832412739487e-15
    vertex 42.977332974640646 6.568251437630923 0.0
    vertex 43.1 7.5 0.0
  endloop
endfacet
facet normal 0.0 0.0 -1.0
  outer loop
    vertex 50.0 0.0 1.4099832412739487e-15
    vertex 43.1 7.5 0.0
    vertex 50.0 15.0 1.4099832412739487e-15
  endloop
endfacet
facet normal 1.0 -0.0 -0.0
  outer loop
    vertex 19.999999999999996 17.000000000000004 1.4099832412739487e-15
    vertex 19.999999999999996 15.0 3.0000000000000013
    vertex 19.999999999999996 15.0 1.4099832412739487e-15
  endloop
endfacet
facet normal 1.0 -0.0 -0.0
  outer loop
    vertex 19.999999999999996 15.0 3.0000000000000013
    vertex 19.999999999999996 17.000000000000004 1.4099832412739487e-15
    vertex 19.999999999999996 17.000000000000004 3.0000000000000013
  endloop
endfacet
facet normal 0.0 0.9914448613738104 -0.13052619222005232
  outer loop
    vertex 47.00000000000001 5.471555764792957 40.5435199947153
    vertex 50.0 5.4 40.0
    vertex 47.00000000000001 5.4 40.0
  endloop
endfacet
facet normal 0.0 0.9914448613738104 -0.13052619222005232
  outer loop
    vertex 50.0 5.4 40.0
    vertex 47.00000000000001 5.471555764792957 40.5435199947153
    vertex 50.0 5.471555764792957 40.5435199947153
  endloop
endfacet
facet normal 0.0 0.9238795325112878 -0.3826834323650873
  outer loop
    vertex 47.00000000000001 5.681346652052679 41.050000000000004
    vertex 50.0 5.471555764792957 40.5435199947153
    vertex 47.00000000000001 5.471555764792957 40.5435199947153
  endloop
endfacet
facet normal 0.0 0.9238795325112878 -0.3826834323650873
  outer loop
    vertex 50.0 5.471555764792957 40.5435199947153
    vertex 47.00000000000001 5.681346652052679 41.050000000000004
    vertex 50.0 5.681346652052679 41.050000000000004
  endloop
endfacet
facet normal 0.0 0.6087614290087228 -0.7933533402912337
  outer loop
    vertex 50.0 6.450000000000001 41.818653347947325
    vertex 47.00000000000001 6.0150757595082505 41.48492424049175
    vertex 47.00000000000001 6.450000000000001 41.818653347947325
  endloop
endfacet
facet normal 0.0 0.6087614290087228 -0.7933533402912337
  outer loop
    vertex 47.00000000000001 6.0150757595082505 41.48492424049175
    vertex 50.0 6.450000000000001 41.818653347947325
    vertex 50.0 6.0150757595082505 41.48492424049175
  endloop
endfacet
facet normal 0.0 -1.0 0.0
  outer loop
    vertex 0.0 0.0 3.0000000000000013
    vertex 0.0 0.0 1.4099832412739487e-15
    vertex 31.0 0.0 3.0000000000000013
  endloop
endfacet
facet normal 0.0 -1.0 0.0
  outer loop
    vertex 50.0 0.0 1.4099832412739487e-15
    vertex 31.0 0.0 3.0000000000000013
    vertex 0.0 0.0 1.4099832412739487e-15
  endloop
endfacet
facet normal 0.0 -1.0 0.0
  outer loop
    vertex 31.0 0.0 3.0000000000000013
    vertex 50.0 0.0 1.4099832412739487e-15
    vertex 46.99999999999999 0.0 13.000000000000007
  endloop
endfacet
facet normal 0.0 -1.0 0.0
  outer loop
    vertex 46.99999999999999 0.0 13.000000000000007
    vertex 50.0 0.0 1.4099832412739487e-15
    vertex 50.0 0.0 50.0
  endloop
endfacet
facet normal 0.0 -1.0 0.0
  outer loop
    vertex 31.0 0.0 3.0000000000000013
    vertex 46.99999999999999 0.0 13.000000000000007
    vertex 30.999999999999993 0.0 13.000000000000002
  endloop
endfacet
facet normal 0.0 -1.0 0.0
  outer loop
    vertex 46.99999999999999 0.0 13.000000000000007
    vertex 50.0 0.0 50.0
    vertex 47.0 0.0 50.0
  endloop
endfacet
facet normal -0.0 0.9914448613738105 0.130526192220051
  outer loop
    vertex 47.00000000000001 5.4 22.000000000000004
    vertex 50.0 5.471555764792957 21.456480005284707
    vertex 47.00000000000001 5.471555764792957 21.456480005284707
  endloop
endfacet
facet normal -0.0 0.9914448613738105 0.130526192220051
  outer loop
    vertex 50.0 5.471555764792957 21.456480005284707
    vertex 47.00000000000001 5.4 22.000000000000004
    vertex 50.0 5.4 22.000000000000004
  endloop
endfacet
facet normal 0.0 0.3826834323650857 -0.9238795325112886
  outer loop
    vertex 50.0 6.956480005284707 42.02844423520704
    vertex 47.00000000000001 6.450000000000001 41.818653347947325
    vertex 47.00000000000001 6.956480005284707 42.02844423520704
  endloop
endfacet
facet normal 0.0 0.3826834323650857 -0.9238795325112886
  outer loop
    vertex 47.00000000000001 6.450000000000001 41.818653347947325
    vertex 50.0 6.956480005284707 42.02844423520704
    vertex 50.0 6.450000000000001 41.818653347947325
  endloop
endfacet
facet normal 0.0 0.13052619222005488 -0.9914448613738102
  outer loop
    vertex 50.0 7.5 42.1
    vertex 47.00000000000001 6.956480005284707 42.02844423520704
    vertex 47.00000000000001 7.5 42.1
  endloop
endfacet
facet normal 0.0 0.13052619222005488 -0.9914448613738102
  outer loop
    vertex 47.00000000000001 6.956480005284707 42.02844423520704
    vertex 50.0 7.5 42.1
    vertex 50.0 6.956480005284707 42.02844423520704
  endloop
endfacet
facet normal 0.0 0.7933533402912332 -0.6087614290087232
  outer loop
    vertex 47.00000000000001 6.0150757595082505 41.48492424049175
    vertex 50.0 5.681346652052679 41.050000000000004
    vertex 47.00000000000001 5.681346652052679 41.050000000000004
  endloop
endfacet
facet normal 0.0 0.7933533402912332 -0.6087614290087232
  outer loop
    vertex 50.0 5.681346652052679 41.050000000000004
    vertex 47.00000000000001 6.0150757595082505 41.48492424049175
    vertex 50.0 6.0150757595082505 41.48492424049175
  endloop
endfacet
facet normal -0.0 1.0 -0.0
  outer loop
    vertex 19.999999999999996 15.0 3.0000000000000013
    vertex 50.0 15.0 1.4099832412739487e-15
    vertex 19.999999999999996 15.0 1.4099832412739487e-15
  endloop
endfacet
facet normal -0.0 1.0 -0.0
  outer loop
    vertex 50.0 15.0 1.4099832412739487e-15
    vertex 19.999999999999996 15.0 3.0000000000000013
    vertex 31.0 15.0 3.0000000000000013
  endloop
endfacet
facet normal -0.0 1.0 -0.0
  outer loop
    vertex 50.0 15.0 1.4099832412739487e-15
    vertex 31.0 15.0 3.0000000000000013
    vertex 46.99999999999999 15.0 13.000000000000007
  endloop
endfacet
facet normal -0.0 1.0 -0.0
  outer loop
    vertex 50.0 15.0 1.4099832412739487e-15
    vertex 46.99999999999999 15.0 13.000000000000007
    vertex 50.0 15.0 50.0
  endloop
endfacet
facet normal -0.0 1.0 -0.0
  outer loop
    vertex 46.99999999999999 15.0 13.000000000000007
    vertex 31.0 15.0 3.0000000000000013
    vertex 30.999999999999993 15.0 13.000000000000002
  endloop
endfacet
facet normal -0.0 1.0 -0.0
  outer loop
    vertex 50.0 15.0 50.0
    vertex 46.99999999999999 15.0 13.000000000000007
    vertex 47.0 15.0 50.0
  endloop
endfacet
facet normal -1.0 1.658803798723408e-16 0.0
  outer loop
    vertex 2.8199664825478975e-15 17.000000149011615 3.0000000000000013
    vertex 0.0 0.0 1.4099832412739487e-15
    vertex 0.0 0.0 3.0000000000000013
  endloop
endfacet
facet normal -1.0 1.658803798723408e-16 0.0
  outer loop
    vertex 0.0 0.0 1.4099832412739487e-15
    vertex 2.8199664825478975e-15 17.000000149011615 3.0000000000000013
    vertex 2.8199664825478975e-15 17.000000149011615 1.4099832412739487e-15
  endloop
endfacet
facet normal -0.0 0.38268343236508573 0.9238795325112886
  outer loop
    vertex 50.0 6.450000000000001 20.18134665205268
    vertex 47.00000000000001 6.956480005284707 19.97155576479296
    vertex 47.00000000000001 6.450000000000001 20.18134665205268
  endloop
endfacet
facet normal -0.0 0.38268343236508573 0.9238795325112886
  outer loop
    vertex 47.00000000000001 6.956480005284707 19.97155576479296
    vertex 50.0 6.450000000000001 20.18134665205268
    vertex 50.0 6.956480005284707 19.97155576479296
  endloop
endfacet
facet normal -0.0 -0.9238795325112864 -0.38268343236509095
  outer loop
    vertex 50.0 9.318653347947322 41.05
    vertex 47.00000000000001 9.528444235207044 40.5435199947153
    vertex 50.0 9.528444235207044 40.5435199947153
  endloop
endfacet
facet normal -0.0 -0.9238795325112864 -0.38268343236509095
  outer loop
    vertex 47.00000000000001 9.528444235207044 40.5435199947153
    vertex 50.0 9.318653347947322 41.05
    vertex 47.00000000000001 9.318653347947322 41.05
  endloop
endfacet
facet normal -0.0 0.7933533402912332 0.6087614290087232
  outer loop
    vertex 47.00000000000001 5.681346652052679 20.949999999999996
    vertex 50.0 6.0150757595082505 20.51507575950825
    vertex 47.00000000000001 6.0150757595082505 20.51507575950825
  endloop
endfacet
facet normal -0.0 0.7933533402912332 0.6087614290087232
  outer loop
    vertex 50.0 6.0150757595082505 20.51507575950825
    vertex 47.00000000000001 5.681346652052679 20.949999999999996
    vertex 50.0 5.681346652052679 20.949999999999996
  endloop
endfacet
facet normal -0.0 -0.793353340291237 -0.6087614290087183
  outer loop
    vertex 50.0 8.98492424049175 41.48492424049175
    vertex 47.00000000000001 9.318653347947322 41.05
    vertex 50.0 9.318653347947322 41.05
  endloop
endfacet
facet normal -0.0 -0.793353340291237 -0.6087614290087183
  outer loop
    vertex 47.00000000000001 9.318653347947322 41.05
    vertex 50.0 8.98492424049175 41.48492424049175
    vertex 47.00000000000001 8.98492424049175 41.48492424049175
  endloop
endfacet
facet normal -0.0 0.6087614290087162 0.7933533402912385
  outer loop
    vertex 50.0 6.0150757595082505 20.51507575950825
    vertex 47.00000000000001 6.450000000000001 20.18134665205268
    vertex 47.00000000000001 6.0150757595082505 20.51507575950825
  endloop
endfacet
facet normal -0.0 0.6087614290087162 0.7933533402912385
  outer loop
    vertex 47.00000000000001 6.450000000000001 20.18134665205268
    vertex 50.0 6.0150757595082505 20.51507575950825
    vertex 50.0 6.450000000000001 20.18134665205268
  endloop
endfacet
facet normal -0.0 0.9238795325112878 0.3826834323650873
  outer loop
    vertex 47.00000000000001 5.471555764792957 21.456480005284707
    vertex 50.0 5.681346652052679 20.949999999999996
    vertex 47.00000000000001 5.681346652052679 20.949999999999996
  endloop
endfacet
facet normal -0.0 0.9238795325112878 0.3826834323650873
  outer loop
    vertex 50.0 5.681346652052679 20.949999999999996
    vertex 47.00000000000001 5.471555764792957 21.456480005284707
    vertex 50.0 5.471555764792957 21.456480005284707
  endloop
endfacet
facet normal -0.0 -0.9914448613738104 -0.13052619222005232
  outer loop
    vertex 50.0 9.528444235207044 40.5435199947153
    vertex 47.00000000000001 9.600000000000001 40.0
    vertex 50.0 9.600000000000001 40.0
  endloop
endfacet
facet normal -0.0 -0.9914448613738104 -0.13052619222005232
  outer loop
    vertex 47.00000000000001 9.600000000000001 40.0
    vertex 50.0 9.528444235207044 40.5435199947153
    vertex 47.00000000000001 9.528444235207044 40.5435199947153
  endloop
endfacet
facet normal -0.0 -0.13052619222005452 -0.9914448613738102
  outer loop
    vertex 50.0 8.043519994715295 42.02844423520704
    vertex 47.00000000000001 7.5 42.1
    vertex 47.00000000000001 8.043519994715295 42.02844423520704
  endloop
endfacet
facet normal -0.0 -0.13052619222005452 -0.9914448613738102
  outer loop
    vertex 47.00000000000001 7.5 42.1
    vertex 50.0 8.043519994715295 42.02844423520704
    vertex 50.0 7.5 42.1
  endloop
endfacet
facet normal -0.0 -0.1305261922200653 0.9914448613738086
  outer loop
    vertex 50.0 7.500000000000002 19.9
    vertex 47.00000000000001 8.043519994715293 19.97155576479296
    vertex 47.00000000000001 7.500000000000002 19.9
  endloop
endfacet
facet normal -0.0 -0.1305261922200653 0.9914448613738086
  outer loop
    vertex 47.00000000000001 8.043519994715293 19.97155576479296
    vertex 50.0 7.500000000000002 19.9
    vertex 50.0 8.043519994715293 19.97155576479296
  endloop
endfacet
facet normal 0.0 -1.0 0.0
  outer loop
    vertex 50.0 9.600000000000001 40.0
    vertex 47.00000000000001 9.600000000000001 22.000000000000004
    vertex 50.0 9.600000000000001 22.000000000000004
  endloop
endfacet
facet normal 0.0 -1.0 0.0
  outer loop
    vertex 47.00000000000001 9.600000000000001 22.000000000000004
    vertex 50.0 9.600000000000001 40.0
    vertex 47.00000000000001 9.600000000000001 40.0
  endloop
endfacet
facet normal 0.0 -0.7933533402912332 0.6087614290087232
  outer loop
    vertex 50.0 9.318653347947322 20.949999999999996
    vertex 47.00000000000001 8.98492424049175 20.51507575950825
    vertex 50.0 8.98492424049175 20.51507575950825
  endloop
endfacet
facet normal 0.0 -0.7933533402912332 0.6087614290087232
  outer loop
    vertex 47.00000000000001 8.98492424049175 20.51507575950825
    vertex 50.0 9.318653347947322 20.949999999999996
    vertex 47.00000000000001 9.318653347947322 20.949999999999996
  endloop
endfacet
facet normal -0.0 -0.6087614290087162 0.7933533402912385
  outer loop
    vertex 50.0 8.55 20.18134665205268
    vertex 47.00000000000001 8.98492424049175 20.51507575950825
    vertex 47.00000000000001 8.55 20.18134665205268
  endloop
endfacet
facet normal -0.0 -0.6087614290087162 0.7933533402912385
  outer loop
    vertex 47.00000000000001 8.98492424049175 20.51507575950825
    vertex 50.0 8.55 20.18134665205268
    vertex 50.0 8.98492424049175 20.51507575950825
  endloop
endfacet
facet normal 0.0 -0.9914448613738105 0.130526192220051
  outer loop
    vertex 50.0 9.600000000000001 22.000000000000004
    vertex 47.00000000000001 9.528444235207044 21.456480005284707
    vertex 50.0 9.528444235207044 21.456480005284707
  endloop
endfacet
facet normal 0.0 -0.9914448613738105 0.130526192220051
  outer loop
    vertex 47.00000000000001 9.528444235207044 21.456480005284707
    vertex 50.0 9.600000000000001 22.000000000000004
    vertex 47.00000000000001 9.600000000000001 22.000000000000004
  endloop
endfacet
facet normal -0.0 -0.3826834323650857 -0.9238795325112886
  outer loop
    vertex 50.0 8.55 41.818653347947325
    vertex 47.00000000000001 8.043519994715295 42.02844423520704
    vertex 47.00000000000001 8.55 41.818653347947325
  endloop
endfacet
facet normal -0.0 -0.3826834323650857 -0.9238795325112886
  outer loop
    vertex 47.00000000000001 8.043519994715295 42.02844423520704
    vertex 50.0 8.55 41.818653347947325
    vertex 50.0 8.043519994715295 42.02844423520704
  endloop
endfacet
facet normal -0.0 -0.3826834323650857 0.9238795325112886
  outer loop
    vertex 50.0 8.043519994715293 19.97155576479296
    vertex 47.00000000000001 8.55 20.18134665205268
    vertex 47.00000000000001 8.043519994715293 19.97155576479296
  endloop
endfacet
facet normal -0.0 -0.3826834323650857 0.9238795325112886
  outer loop
    vertex 47.00000000000001 8.55 20.18134665205268
    vertex 50.0 8.043519994715293 19.97155576479296
    vertex 50.0 8.55 20.18134665205268
  endloop
endfacet
facet normal -0.0 0.13052619222006462 0.9914448613738088
  outer loop
    vertex 50.0 6.956480005284707 19.97155576479296
    vertex 47.00000000000001 7.500000000000002 19.9
    vertex 47.00000000000001 6.956480005284707 19.97155576479296
  endloop
endfacet
facet normal -0.0 0.13052619222006462 0.9914448613738088
  outer loop
    vertex 47.00000000000001 7.500000000000002 19.9
    vertex 50.0 6.956480005284707 19.97155576479296
    vertex 50.0 7.500000000000002 19.9
  endloop
endfacet
facet normal -0.0 -0.608761429008724 -0.7933533402912326
  outer loop
    vertex 50.0 8.98492424049175 41.48492424049175
    vertex 47.00000000000001 8.55 41.818653347947325
    vertex 47.00000000000001 8.98492424049175 41.48492424049175
  endloop
endfacet
facet normal -0.0 -0.608761429008724 -0.7933533402912326
  outer loop
    vertex 47.00000000000001 8.55 41.818653347947325
    vertex 50.0 8.98492424049175 41.48492424049175
    vertex 50.0 8.55 41.818653347947325
  endloop
endfacet
facet normal 0.0 -0.9238795325112878 0.3826834323650873
  outer loop
    vertex 50.0 9.528444235207044 21.456480005284707
    vertex 47.00000000000001 9.318653347947322 20.949999999999996
    vertex 50.0 9.318653347947322 20.949999999999996
  endloop
endfacet
facet normal 0.0 -0.9238795325112878 0.3826834323650873
  outer loop
    vertex 47.00000000000001 9.318653347947322 20.949999999999996
    vertex 50.0 9.528444235207044 21.456480005284707
    vertex 47.00000000000001 9.528444235207044 21.456480005284707
  endloop
endfacet
facet normal -5.537652615480707e-33 1.8868792388954643e-33 1.0
  outer loop
    vertex 19.999999999999996 17.000000000000004 3.0000000000000013
    vertex 19.6592582661046 19.588190439030694 3.0000000000000013
    vertex 19.999999999999996 15.0 3.0000000000000013
  endloop
endfacet
facet normal -5.537652615480707e-33 1.8868792388954643e-33 1.0
  outer loop
    vertex 31.0 0.0 3.0000000000000013
    vertex 2.8199664825478975e-15 17.000000149011615 3.0000000000000013
    vertex 0.0 0.0 3.0000000000000013
  endloop
endfacet
facet normal -5.537652615480707e-33 1.8868792388954643e-33 1.0
  outer loop
    vertex 2.8199664825478975e-15 17.000000149011615 3.0000000000000013
    vertex 31.0 0.0 3.0000000000000013
    vertex 0.3407417724624421 19.58819058296486 3.0000000000000013
  endloop
endfacet
facet normal -5.537652615480707e-33 1.8868792388954643e-33 1.0
  outer loop
    vertex 0.3407417724624421 19.58819058296486 3.0000000000000013
    vertex 31.0 0.0 3.0000000000000013
    vertex 1.3397460242437875 22.00000010753987 3.0000000000000013
  endloop
endfacet
facet normal -5.537652615480707e-33 1.8868792388954643e-33 1.0
  outer loop
    vertex 1.3397460242437875 22.00000010753987 3.0000000000000013
    vertex 31.0 0.0 3.0000000000000013
    vertex 2.928932267159869 24.071067890890816 3.0000000000000013
  endloop
endfacet
facet normal -5.537652615480707e-33 1.8868792388954643e-33 1.0
  outer loop
    vertex 2.928932267159869 24.071067890890816 3.0000000000000013
    vertex 31.0 0.0 3.0000000000000013
    vertex 5.000000086031895 25.66025408751492 3.0000000000000013
  endloop
endfacet
facet normal -5.537652615480707e-33 1.8868792388954643e-33 1.0
  outer loop
    vertex 5.000000086031895 25.66025408751492 3.0000000000000013
    vertex 31.0 0.0 3.0000000000000013
    vertex 7.4118096329363885 26.659258285388127 3.0000000000000013
  endloop
endfacet
facet normal -5.537652615480707e-33 1.8868792388954643e-33 1.0
  outer loop
    vertex 7.4118096329363885 26.659258285388127 3.0000000000000013
    vertex 31.0 0.0 3.0000000000000013
    vertex 10.000000074505806 27.0 3.0000000000000013
  endloop
endfacet
facet normal -5.537652615480707e-33 1.8868792388954643e-33 1.0
  outer loop
    vertex 10.000000074505806 27.0 3.0000000000000013
    vertex 31.0 0.0 3.0000000000000013
    vertex 19.999999999999996 15.0 3.0000000000000013
  endloop
endfacet
facet normal -5.537652615480707e-33 1.8868792388954643e-33 1.0
  outer loop
    vertex 10.000000074505806 27.0 3.0000000000000013
    vertex 19.999999999999996 15.0 3.0000000000000013
    vertex 12.588190510997775 26.659258246821082 3.0000000000000013
  endloop
endfacet
facet normal -5.537652615480707e-33 1.8868792388954643e-33 1.0
  outer loop
    vertex 12.588190510997775 26.659258246821082 3.0000000000000013
    vertex 19.999999999999996 15.0 3.0000000000000013
    vertex 15.000000043015945 25.66025401300912 3.0000000000000013
  endloop
endfacet
facet normal -5.537652615480707e-33 1.8868792388954643e-33 1.0
  outer loop
    vertex 15.000000043015945 25.66025401300912 3.0000000000000013
    vertex 19.999999999999996 15.0 3.0000000000000013
    vertex 17.071067838207252 24.0710677855237 3.0000000000000013
  endloop
endfacet
facet normal -5.537652615480707e-33 1.8868792388954643e-33 1.0
  outer loop
    vertex 17.071067838207252 24.0710677855237 3.0000000000000013
    vertex 19.999999999999996 15.0 3.0000000000000013
    vertex 18.660254050262015 21.999999978492028 3.0000000000000013
  endloop
endfacet
facet normal -5.537652615480707e-33 1.8868792388954643e-33 1.0
  outer loop
    vertex 18.660254050262015 21.999999978492028 3.0000000000000013
    vertex 19.999999999999996 15.0 3.0000000000000013
    vertex 19.6592582661046 19.588190439030694 3.0000000000000013
  endloop
endfacet
facet normal -5.537652615480707e-33 1.8868792388954643e-33 1.0
  outer loop
    vertex 19.999999999999996 15.0 3.0000000000000013
    vertex 31.0 0.0 3.0000000000000013
    vertex 31.0 15.0 3.0000000000000013
  endloop
endfacet
facet normal -3.084338340286763e-16 0.0 1.0
  outer loop
    vertex 30.999999999999993 0.0 13.000000000000002
    vertex 38.01507575950824 6.0150757595082505 13.000000000000007
    vertex 30.999999999999993 15.0 13.000000000000002
  endloop
endfacet
facet normal -3.084338340286763e-16 0.0 1.0
  outer loop
    vertex 38.01507575950824 6.0150757595082505 13.000000000000007
    vertex 30.999999999999993 0.0 13.000000000000002
    vertex 38.449999999999996 5.681346652052679 13.000000000000007
  endloop
endfacet
facet normal -3.084338340286763e-16 0.0 1.0
  outer loop
    vertex 38.449999999999996 5.681346652052679 13.000000000000007
    vertex 30.999999999999993 0.0 13.000000000000002
    vertex 46.99999999999999 0.0 13.000000000000007
  endloop
endfacet
facet normal -3.084338340286763e-16 0.0 1.0
  outer loop
    vertex 30.999999999999993 15.0 13.000000000000002
    vertex 38.01507575950824 6.0150757595082505 13.000000000000007
    vertex 37.681346652052675 6.449999999999999 13.000000000000007
  endloop
endfacet
facet normal -3.084338340286763e-16 0.0 1.0
  outer loop
    vertex 30.999999999999993 15.0 13.000000000000002
    vertex 37.681346652052675 6.449999999999999 13.000000000000007
    vertex 37.47155576479295 6.956480005284706 13.000000000000007
  endloop
endfacet
facet normal -3.084338340286763e-16 0.0 1.0
  outer loop
    vertex 30.999999999999993 15.0 13.000000000000002
    vertex 37.47155576479295 6.956480005284706 13.000000000000007
    vertex 37.39999999999999 7.5 13.000000000000007
  endloop
endfacet
facet normal -3.084338340286763e-16 0.0 1.0
  outer loop
    vertex 38.449999999999996 5.681346652052679 13.000000000000007
    vertex 46.99999999999999 0.0 13.000000000000007
    vertex 38.9564800052847 5.471555764792957 13.000000000000007
  endloop
endfacet
facet normal -3.084338340286763e-16 0.0 1.0
  outer loop
    vertex 38.9564800052847 5.471555764792957 13.000000000000007
    vertex 46.99999999999999 0.0 13.000000000000007
    vertex 39.49999999999999 5.4 13.000000000000007
  endloop
endfacet
facet normal -3.084338340286763e-16 0.0 1.0
  outer loop
    vertex 39.49999999999999 5.4 13.000000000000007
    vertex 46.99999999999999 0.0 13.000000000000007
    vertex 40.04351999471529 5.471555764792957 13.000000000000007
  endloop
endfacet
facet normal -3.084338340286763e-16 0.0 1.0
  outer loop
    vertex 40.04351999471529 5.471555764792957 13.000000000000007
    vertex 46.99999999999999 0.0 13.000000000000007
    vertex 40.55 5.681346652052679 13.000000000000007
  endloop
endfacet
facet normal -3.084338340286763e-16 0.0 1.0
  outer loop
    vertex 40.55 5.681346652052679 13.000000000000007
    vertex 46.99999999999999 0.0 13.000000000000007
    vertex 40.98492424049174 6.0150757595082505 13.000000000000007
  endloop
endfacet
facet normal -3.084338340286763e-16 0.0 1.0
  outer loop
    vertex 40.98492424049174 6.0150757595082505 13.000000000000007
    vertex 46.99999999999999 0.0 13.000000000000007
    vertex 41.31865334794732 6.450000000000002 13.000000000000007
  endloop
endfacet
facet normal -3.084338340286763e-16 0.0 1.0
  outer loop
    vertex 41.31865334794732 6.450000000000002 13.000000000000007
    vertex 46.99999999999999 0.0 13.000000000000007
    vertex 41.52844423520704 6.956480005284707 13.000000000000007
  endloop
endfacet
facet normal -3.084338340286763e-16 0.0 1.0
  outer loop
    vertex 41.52844423520704 6.956480005284707 13.000000000000007
    vertex 46.99999999999999 0.0 13.000000000000007
    vertex 41.599999999999994 7.5 13.000000000000007
  endloop
endfacet
facet normal -3.084338340286763e-16 0.0 1.0
  outer loop
    vertex 30.999999999999993 15.0 13.000000000000002
    vertex 38.44999999999999 9.318653347947322 13.000000000000007
    vertex 46.99999999999999 15.0 13.000000000000007
  endloop
endfacet
facet normal -3.084338340286763e-16 0.0 1.0
  outer loop
    vertex 38.44999999999999 9.318653347947322 13.000000000000007
    vertex 30.999999999999993 15.0 13.000000000000002
    vertex 38.01507575950824 8.98492424049175 13.000000000000007
  endloop
endfacet
facet normal -3.084338340286763e-16 0.0 1.0
  outer loop
    vertex 38.01507575950824 8.98492424049175 13.000000000000007
    vertex 30.999999999999993 15.0 13.000000000000002
    vertex 37.681346652052675 8.55 13.000000000000007
  endloop
endfacet
facet normal -3.084338340286763e-16 0.0 1.0
  outer loop
    vertex 37.681346652052675 8.55 13.000000000000007
    vertex 30.999999999999993 15.0 13.000000000000002
    vertex 37.47155576479295 8.043519994715293 13.000000000000007
  endloop
endfacet
facet normal -3.084338340286763e-16 0.0 1.0
  outer loop
    vertex 37.47155576479295 8.043519994715293 13.000000000000007
    vertex 30.999999999999993 15.0 13.000000000000002
    vertex 37.39999999999999 7.5 13.000000000000007
  endloop
endfacet
facet normal -3.084338340286763e-16 0.0 1.0
  outer loop
    vertex 46.99999999999999 15.0 13.000000000000007
    vertex 38.44999999999999 9.318653347947322 13.000000000000007
    vertex 38.9564800052847 9.528444235207044 13.000000000000007
  endloop
endfacet
facet normal -3.084338340286763e-16 0.0 1.0
  outer loop
    vertex 46.99999999999999 15.0 13.000000000000007
    vertex 38.9564800052847 9.528444235207044 13.000000000000007
    vertex 39.49999999999999 9.600000000000001 13.000000000000007
  endloop
endfacet
facet normal -3.084338340286763e-16 0.0 1.0
  outer loop
    vertex 46.99999999999999 15.0 13.000000000000007
    vertex 39.49999999999999 9.600000000000001 13.000000000000007
    vertex 40.04351999471529 9.528444235207044 13.000000000000007
  endloop
endfacet
facet normal -3.084338340286763e-16 0.0 1.0
  outer loop
    vertex 46.99999999999999 15.0 13.000000000000007
    vertex 40.04351999471529 9.528444235207044 13.000000000000007
    vertex 40.54999999999999 9.318653347947322 13.000000000000007
  endloop
endfacet
facet normal -3.084338340286763e-16 0.0 1.0
  outer loop
    vertex 46.99999999999999 15.0 13.000000000000007
    vertex 40.54999999999999 9.318653347947322 13.000000000000007
    vertex 40.98492424049174 8.98492424049175 13.000000000000007
  endloop
endfacet
facet normal -3.084338340286763e-16 0.0 1.0
  outer loop
    vertex 46.99999999999999 15.0 13.000000000000007
    vertex 40.98492424049174 8.98492424049175 13.000000000000007
    vertex 41.31865334794731 8.55 13.000000000000007
  endloop
endfacet
facet normal -3.084338340286763e-16 0.0 1.0
  outer loop
    vertex 46.99999999999999 15.0 13.000000000000007
    vertex 41.31865334794731 8.55 13.000000000000007
    vertex 41.52844423520704 8.043519994715295 13.000000000000007
  endloop
endfacet
facet normal -3.084338340286763e-16 0.0 1.0
  outer loop
    vertex 46.99999999999999 15.0 13.000000000000007
    vertex 41.52844423520704 8.043519994715295 13.000000000000007
    vertex 41.599999999999994 7.5 13.000000000000007
  endloop
endfacet
facet normal -3.084338340286763e-16 0.0 1.0
  outer loop
    vertex 46.99999999999999 15.0 13.000000000000007
    vertex 41.599999999999994 7.5 13.000000000000007
    vertex 46.99999999999999 0.0 13.000000000000007
  endloop
endfacet
facet normal -1.0 -0.0 -3.084338340286763e-16
  outer loop
    vertex 30.999999999999993 15.0 13.000000000000002
    vertex 31.0 0.0 3.0000000000000013
    vertex 30.999999999999993 0.0 13.000000000000002
  endloop
endfacet
facet normal -1.0 -0.0 -3.084338340286763e-16
  outer loop
    vertex 31.0 0.0 3.0000000000000013
    vertex 30.999999999999993 15.0 13.000000000000002
    vertex 31.0 15.0 3.0000000000000013
  endloop
endfacet
facet normal -0.9914448595098598 0.13052620637816123 0.0
  outer loop
    vertex 0.3407417724624421 19.58819058296486 3.0000000000000013
    vertex 2.8199664825478975e-15 17.000000149011615 1.4099832412739487e-15
    vertex 2.8199664825478975e-15 17.000000149011615 3.0000000000000013
  endloop
endfacet
facet normal -0.9914448595098598 0.13052620637816123 0.0
  outer loop
    vertex 2.8199664825478975e-15 17.000000149011615 1.4099832412739487e-15
    vertex 0.3407417724624421 19.58819058296486 3.0000000000000013
    vertex 0.3407417724624421 19.58819058296486 1.4099832412739487e-15
  endloop
endfacet
facet normal -0.9238795275216625 0.382683444411108 -9.910222047432445e-33
  outer loop
    vertex 1.3397460242437875 22.00000010753987 3.0000000000000013
    vertex 0.3407417724624421 19.58819058296486 1.4099832412739487e-15
    vertex 0.3407417724624421 19.58819058296486 3.0000000000000013
  endloop
endfacet
facet normal -0.9238795275216625 0.382683444411108 -9.910222047432445e-33
  outer loop
    vertex 0.3407417724624421 19.58819058296486 1.4099832412739487e-15
    vertex 1.3397460242437875 22.00000010753987 3.0000000000000013
    vertex 1.3397460242437875 22.00000010753987 1.4099832412739487e-15
  endloop
endfacet
facet normal -0.793353333109827 0.6087614383677139 -1.0535990570338704e-32
  outer loop
    vertex 2.928932267159869 24.071067890890816 3.0000000000000013
    vertex 1.3397460242437875 22.00000010753987 1.4099832412739487e-15
    vertex 1.3397460242437875 22.00000010753987 3.0000000000000013
  endloop
endfacet
facet normal -0.793353333109827 0.6087614383677139 -1.0535990570338704e-32
  outer loop
    vertex 1.3397460242437875 22.00000010753987 1.4099832412739487e-15
    vertex 2.928932267159869 24.071067890890816 3.0000000000000013
    vertex 2.928932267159869 24.071067890890816 1.4099832412739487e-15
  endloop
endfacet
facet normal -0.6087614206348845 0.7933533467167058 -1.0443748754196407e-32
  outer loop
    vertex 2.928932267159869 24.071067890890816 3.0000000000000013
    vertex 5.000000086031895 25.66025408751492 1.4099832412739487e-15
    vertex 2.928932267159869 24.071067890890816 1.4099832412739487e-15
  endloop
endfacet
facet normal -0.6087614206348845 0.7933533467167058 -1.0443748754196407e-32
  outer loop
    vertex 5.000000086031895 25.66025408751492 1.4099832412739487e-15
    vertex 2.928932267159869 24.071067890890816 3.0000000000000013
    vertex 5.000000086031895 25.66025408751492 3.0000000000000013
  endloop
endfacet
facet normal -0.3826834237607927 0.9238795360753033 -9.639782726279564e-33
  outer loop
    vertex 5.000000086031895 25.66025408751492 3.0000000000000013
    vertex 7.4118096329363885 26.659258285388127 1.4099832412739487e-15
    vertex 5.000000086031895 25.66025408751492 1.4099832412739487e-15
  endloop
endfacet
facet normal -0.3826834237607927 0.9238795360753033 -9.639782726279564e-33
  outer loop
    vertex 7.4118096329363885 26.659258285388127 1.4099832412739487e-15
    vertex 5.000000086031895 25.66025408751492 3.0000000000000013
    vertex 7.4118096329363885 26.659258285388127 3.0000000000000013
  endloop
endfacet
facet normal -0.13052618421764087 0.9914448624273478 -8.17888144225722e-33
  outer loop
    vertex 7.4118096329363885 26.659258285388127 3.0000000000000013
    vertex 10.000000074505806 27.0 1.4099832412739487e-15
    vertex 7.4118096329363885 26.659258285388127 1.4099832412739487e-15
  endloop
endfacet
facet normal -0.13052618421764087 0.9914448624273478 -8.17888144225722e-33
  outer loop
    vertex 10.000000074505806 27.0 1.4099832412739487e-15
    vertex 7.4118096329363885 26.659258285388127 3.0000000000000013
    vertex 10.000000074505806 27.0 3.0000000000000013
  endloop
endfacet
facet normal 0.13052619899132178 0.9914448604823559 -6.1606029094429735e-33
  outer loop
    vertex 10.000000074505806 27.0 3.0000000000000013
    vertex 12.588190510997775 26.659258246821082 1.4099832412739487e-15
    vertex 10.000000074505806 27.0 1.4099832412739487e-15
  endloop
endfacet
facet normal 0.13052619899132178 0.9914448604823559 -6.1606029094429735e-33
  outer loop
    vertex 12.588190510997775 26.659258246821082 1.4099832412739487e-15
    vertex 10.000000074505806 27.0 3.0000000000000013
    vertex 12.588190510997775 26.659258246821082 3.0000000000000013
  endloop
endfacet
facet normal 0.3826834375276691 0.9238795303728764 -3.722489473187797e-33
  outer loop
    vertex 12.588190510997775 26.659258246821082 3.0000000000000013
    vertex 15.000000043015945 25.66025401300912 1.4099832412739487e-15
    vertex 12.588190510997775 26.659258246821082 1.4099832412739487e-15
  endloop
endfacet
facet normal 0.3826834375276691 0.9238795303728764 -3.722489473187797e-33
  outer loop
    vertex 15.000000043015945 25.66025401300912 1.4099832412739487e-15
    vertex 12.588190510997775 26.659258246821082 3.0000000000000013
    vertex 15.000000043015945 25.66025401300912 3.0000000000000013
  endloop
endfacet
facet normal 0.6087614324567703 0.7933533376454537 -1.0306945334323539e-33
  outer loop
    vertex 15.000000043015945 25.66025401300912 3.0000000000000013
    vertex 17.071067838207252 24.0710677855237 1.4099832412739487e-15
    vertex 15.000000043015945 25.66025401300912 1.4099832412739487e-15
  endloop
endfacet
facet normal 0.6087614324567703 0.7933533376454537 -1.0306945334323539e-33
  outer loop
    vertex 17.071067838207252 24.0710677855237 1.4099832412739487e-15
    vertex 15.000000043015945 25.66025401300912 3.0000000000000013
    vertex 17.071067838207252 24.0710677855237 3.0000000000000013
  endloop
endfacet
facet normal 0.7933533421810798 0.6087614265458271 1.73134053481076e-33
  outer loop
    vertex 17.071067838207252 24.0710677855237 1.4099832412739487e-15
    vertex 18.660254050262015 21.999999978492028 3.0000000000000013
    vertex 18.660254050262015 21.999999978492028 1.4099832412739487e-15
  endloop
endfacet
facet normal 0.7933533421810798 0.6087614265458271 1.73134053481076e-33
  outer loop
    vertex 18.660254050262015 21.999999978492028 3.0000000000000013
    vertex 17.071067838207252 24.0710677855237 1.4099832412739487e-15
    vertex 17.071067838207252 24.0710677855237 3.0000000000000013
  endloop
endfacet
facet normal 0.9238795332240899 0.3826834306442306 4.3753876078948856e-33
  outer loop
    vertex 18.660254050262015 21.999999978492028 1.4099832412739487e-15
    vertex 19.6592582661046 19.588190439030694 3.0000000000000013
    vertex 19.6592582661046 19.588190439030694 1.4099832412739487e-15
  endloop
endfacet
facet normal 0.9238795332240899 0.3826834306442306 4.3753876078948856e-33
  outer loop
    vertex 19.6592582661046 19.588190439030694 3.0000000000000013
    vertex 18.660254050262015 21.999999978492028 1.4099832412739487e-15
    vertex 18.660254050262015 21.999999978492028 3.0000000000000013
  endloop
endfacet
facet normal 0.9914448614548519 0.1305261916044814 -0.0
  outer loop
    vertex 19.6592582661046 19.588190439030694 1.4099832412739487e-15
    vertex 19.999999999999996 17.000000000000004 3.0000000000000013
    vertex 19.999999999999996 17.000000000000004 1.4099832412739487e-15
  endloop
endfacet
facet normal 0.9914448614548519 0.1305261916044814 -0.0
  outer loop
    vertex 19.999999999999996 17.000000000000004 3.0000000000000013
    vertex 19.6592582661046 19.588190439030694 1.4099832412739487e-15
    vertex 19.6592582661046 19.588190439030694 3.0000000000000013
  endloop
endfacet
facet normal -0.7406528503258427 -0.3067884556152551 -0.597757642197414
  outer loop
    vertex 41.31865334794732 8.55 1.9945
    vertex 42.977332974640646 8.431748562369075 0.0
    vertex 41.52844423520705 8.043519994715295 1.9945
  endloop
endfacet
facet normal -0.7406528503258427 -0.3067884556152551 -0.597757642197414
  outer loop
    vertex 42.977332974640646 8.431748562369075 0.0
    vertex 41.31865334794732 8.55 1.9945
    vertex 42.61769145362398 9.3 0.0
  endloop
endfacet
facet normal -0.7948184115751613 -0.10463982901231653 -0.5977576421974131
  outer loop
    vertex 41.52844423520705 8.043519994715295 1.9945
    vertex 43.1 7.5 0.0
    vertex 41.6 7.5 1.9945
  endloop
endfacet
facet normal -0.7948184115751613 -0.10463982901231653 -0.5977576421974131
  outer loop
    vertex 43.1 7.5 0.0
    vertex 41.52844423520705 8.043519994715295 1.9945
    vertex 42.977332974640646 8.431748562369075 0.0
  endloop
endfacet
facet normal -0.7948184115751613 0.1046398290123164 -0.5977576421974133
  outer loop
    vertex 41.52844423520705 6.956480005284707 1.9945
    vertex 43.1 7.5 0.0
    vertex 42.977332974640646 6.568251437630923 0.0
  endloop
endfacet
facet normal -0.7948184115751613 0.1046398290123164 -0.5977576421974133
  outer loop
    vertex 43.1 7.5 0.0
    vertex 41.52844423520705 6.956480005284707 1.9945
    vertex 41.6 7.5 1.9945
  endloop
endfacet
facet normal -0.7406528503258435 0.30678845561525375 -0.5977576421974136
  outer loop
    vertex 41.318653347947325 6.450000000000002 1.9945
    vertex 42.977332974640646 6.568251437630923 0.0
    vertex 42.61769145362398 5.699999999999999 0.0
  endloop
endfacet
facet normal -0.7406528503258435 0.30678845561525375 -0.5977576421974136
  outer loop
    vertex 42.977332974640646 6.568251437630923 0.0
    vertex 41.318653347947325 6.450000000000002 1.9945
    vertex 41.52844423520705 6.956480005284707 1.9945
  endloop
endfacet
facet normal -0.6360130213135254 0.48802995595990867 -0.5977576421974135
  outer loop
    vertex 40.98492424049175 6.0150757595082505 1.9945
    vertex 42.61769145362398 5.699999999999999 0.0
    vertex 42.045584412271566 4.9544155877284295 0.0
  endloop
endfacet
facet normal -0.6360130213135254 0.48802995595990867 -0.5977576421974135
  outer loop
    vertex 42.61769145362398 5.699999999999999 0.0
    vertex 40.98492424049175 6.0150757595082505 1.9945
    vertex 41.318653347947325 6.450000000000002 1.9945
  endloop
endfacet
facet normal -0.4880299559599075 0.6360130213135265 -0.5977576421974129
  outer loop
    vertex 40.550000000000004 5.681346652052679 1.9945
    vertex 42.045584412271566 4.9544155877284295 0.0
    vertex 41.3 4.38230854637602 0.0
  endloop
endfacet
facet normal -0.4880299559599075 0.6360130213135265 -0.5977576421974129
  outer loop
    vertex 42.045584412271566 4.9544155877284295 0.0
    vertex 40.550000000000004 5.681346652052679 1.9945
    vertex 40.98492424049175 6.0150757595082505 1.9945
  endloop
endfacet
facet normal -0.3067884556152534 0.740652850325844 -0.597757642197413
  outer loop
    vertex 40.0435199947153 5.471555764792957 1.9945
    vertex 41.3 4.38230854637602 0.0
    vertex 40.43174856236907 4.022667025359355 0.0
  endloop
endfacet
facet normal -0.3067884556152534 0.740652850325844 -0.597757642197413
  outer loop
    vertex 41.3 4.38230854637602 0.0
    vertex 40.0435199947153 5.471555764792957 1.9945
    vertex 40.550000000000004 5.681346652052679 1.9945
  endloop
endfacet
facet normal -0.10463982901231685 0.7948184115751613 -0.5977576421974132
  outer loop
    vertex 39.5 5.4 1.9945
    vertex 40.43174856236907 4.022667025359355 0.0
    vertex 39.5 3.9000000000000012 0.0
  endloop
endfacet
facet normal -0.10463982901231685 0.7948184115751613 -0.5977576421974132
  outer loop
    vertex 40.43174856236907 4.022667025359355 0.0
    vertex 39.5 5.4 1.9945
    vertex 40.0435199947153 5.471555764792957 1.9945
  endloop
endfacet
facet normal 0.10463982901231682 0.7948184115751613 -0.5977576421974132
  outer loop
    vertex 38.95648000528471 5.471555764792957 1.9945
    vertex 39.5 3.9000000000000012 0.0
    vertex 38.56825143763092 4.022667025359356 0.0
  endloop
endfacet
facet normal 0.10463982901231682 0.7948184115751613 -0.5977576421974132
  outer loop
    vertex 39.5 3.9000000000000012 0.0
    vertex 38.95648000528471 5.471555764792957 1.9945
    vertex 39.5 5.4 1.9945
  endloop
endfacet
facet normal 0.30678845561525475 0.740652850325843 -0.5977576421974137
  outer loop
    vertex 38.45 5.681346652052679 1.9945
    vertex 38.56825143763092 4.022667025359356 0.0
    vertex 37.699999999999996 4.382308546376023 0.0
  endloop
endfacet
facet normal 0.30678845561525475 0.740652850325843 -0.5977576421974137
  outer loop
    vertex 38.56825143763092 4.022667025359356 0.0
    vertex 38.45 5.681346652052679 1.9945
    vertex 38.95648000528471 5.471555764792957 1.9945
  endloop
endfacet
facet normal 0.48802995595990606 0.6360130213135269 -0.5977576421974139
  outer loop
    vertex 38.01507575950825 6.0150757595082505 1.9945
    vertex 37.699999999999996 4.382308546376023 0.0
    vertex 36.95441558772843 4.954415587728431 0.0
  endloop
endfacet
facet normal 0.48802995595990606 0.6360130213135269 -0.5977576421974139
  outer loop
    vertex 37.699999999999996 4.382308546376023 0.0
    vertex 38.01507575950825 6.0150757595082505 1.9945
    vertex 38.45 5.681346652052679 1.9945
  endloop
endfacet
facet normal 0.6360130213135269 0.48802995595990667 -0.5977576421974133
  outer loop
    vertex 36.382308546376024 5.700000000000002 0.0
    vertex 38.01507575950825 6.0150757595082505 1.9945
    vertex 36.95441558772843 4.954415587728431 0.0
  endloop
endfacet
facet normal 0.6360130213135269 0.48802995595990667 -0.5977576421974133
  outer loop
    vertex 38.01507575950825 6.0150757595082505 1.9945
    vertex 36.382308546376024 5.700000000000002 0.0
    vertex 37.681346652052675 6.449999999999999 1.9945
  endloop
endfacet
facet normal 0.740652850325844 0.3067884556152534 -0.5977576421974131
  outer loop
    vertex 36.022667025359354 6.568251437630927 0.0
    vertex 37.681346652052675 6.449999999999999 1.9945
    vertex 36.382308546376024 5.700000000000002 0.0
  endloop
endfacet
facet normal 0.740652850325844 0.3067884556152534 -0.5977576421974131
  outer loop
    vertex 37.681346652052675 6.449999999999999 1.9945
    vertex 36.022667025359354 6.568251437630927 0.0
    vertex 37.47155576479296 6.956480005284706 1.9945
  endloop
endfacet
facet normal 0.7948184115751613 0.10463982901231673 -0.5977576421974132
  outer loop
    vertex 35.9 7.5 0.0
    vertex 37.47155576479296 6.956480005284706 1.9945
    vertex 36.022667025359354 6.568251437630927 0.0
  endloop
endfacet
facet normal 0.7948184115751613 0.10463982901231673 -0.5977576421974132
  outer loop
    vertex 37.47155576479296 6.956480005284706 1.9945
    vertex 35.9 7.5 0.0
    vertex 37.4 7.5 1.9945
  endloop
endfacet
facet normal 0.7948184115751613 -0.10463982901231662 -0.5977576421974133
  outer loop
    vertex 36.022667025359354 8.431748562369075 0.0
    vertex 37.4 7.5 1.9945
    vertex 35.9 7.5 0.0
  endloop
endfacet
facet normal 0.7948184115751613 -0.10463982901231662 -0.5977576421974133
  outer loop
    vertex 37.4 7.5 1.9945
    vertex 36.022667025359354 8.431748562369075 0.0
    vertex 37.47155576479296 8.043519994715293 1.9945
  endloop
endfacet
facet normal 0.7406528503258438 -0.30678845561525286 -0.5977576421974136
  outer loop
    vertex 36.022667025359354 8.431748562369075 0.0
    vertex 37.681346652052675 8.55 1.9945
    vertex 37.47155576479296 8.043519994715293 1.9945
  endloop
endfacet
facet normal 0.7406528503258438 -0.30678845561525286 -0.5977576421974136
  outer loop
    vertex 37.681346652052675 8.55 1.9945
    vertex 36.022667025359354 8.431748562369075 0.0
    vertex 36.382308546376024 9.3 0.0
  endloop
endfacet
facet normal 0.6360130213135254 -0.4880299559599088 -0.5977576421974132
  outer loop
    vertex 36.382308546376024 9.3 0.0
    vertex 38.01507575950825 8.98492424049175 1.9945
    vertex 37.681346652052675 8.55 1.9945
  endloop
endfacet
facet normal 0.6360130213135254 -0.4880299559599088 -0.5977576421974132
  outer loop
    vertex 38.01507575950825 8.98492424049175 1.9945
    vertex 36.382308546376024 9.3 0.0
    vertex 36.954415587728434 10.045584412271571 0.0
  endloop
endfacet
facet normal 0.48802995595990706 -0.6360130213135271 -0.5977576421974129
  outer loop
    vertex 38.449999999999996 9.318653347947322 1.9945
    vertex 36.954415587728434 10.045584412271571 0.0
    vertex 37.7 10.617691453623978 0.0
  endloop
endfacet
facet normal 0.48802995595990706 -0.6360130213135271 -0.5977576421974129
  outer loop
    vertex 36.954415587728434 10.045584412271571 0.0
    vertex 38.449999999999996 9.318653347947322 1.9945
    vertex 38.01507575950825 8.98492424049175 1.9945
  endloop
endfacet
facet normal 0.3067884556152544 -0.7406528503258436 -0.5977576421974131
  outer loop
    vertex 38.95648000528471 9.528444235207044 1.9945
    vertex 37.7 10.617691453623978 0.0
    vertex 38.56825143763093 10.977332974640646 0.0
  endloop
endfacet
facet normal 0.3067884556152544 -0.7406528503258436 -0.5977576421974131
  outer loop
    vertex 37.7 10.617691453623978 0.0
    vertex 38.95648000528471 9.528444235207044 1.9945
    vertex 38.449999999999996 9.318653347947322 1.9945
  endloop
endfacet
facet normal 0.10463982901231646 -0.7948184115751613 -0.5977576421974133
  outer loop
    vertex 39.5 9.600000000000001 1.9945
    vertex 38.56825143763093 10.977332974640646 0.0
    vertex 39.5 11.1 0.0
  endloop
endfacet
facet normal 0.10463982901231646 -0.7948184115751613 -0.5977576421974133
  outer loop
    vertex 38.56825143763093 10.977332974640646 0.0
    vertex 39.5 9.600000000000001 1.9945
    vertex 38.95648000528471 9.528444235207044 1.9945
  endloop
endfacet
facet normal -0.10463982901231682 -0.7948184115751613 -0.5977576421974132
  outer loop
    vertex 40.0435199947153 9.528444235207044 1.9945
    vertex 39.5 11.1 0.0
    vertex 40.43174856236908 10.977332974640644 0.0
  endloop
endfacet
facet normal -0.10463982901231682 -0.7948184115751613 -0.5977576421974132
  outer loop
    vertex 39.5 11.1 0.0
    vertex 40.0435199947153 9.528444235207044 1.9945
    vertex 39.5 9.600000000000001 1.9945
  endloop
endfacet
facet normal -0.30678845561525436 -0.7406528503258432 -0.5977576421974137
  outer loop
    vertex 40.55 9.318653347947322 1.9945
    vertex 40.43174856236908 10.977332974640644 0.0
    vertex 41.300000000000004 10.617691453623978 0.0
  endloop
endfacet
facet normal -0.30678845561525436 -0.7406528503258432 -0.5977576421974137
  outer loop
    vertex 40.43174856236908 10.977332974640644 0.0
    vertex 40.55 9.318653347947322 1.9945
    vertex 40.0435199947153 9.528444235207044 1.9945
  endloop
endfacet
facet normal -0.4880299559599072 -0.6360130213135261 -0.5977576421974138
  outer loop
    vertex 40.98492424049175 8.98492424049175 1.9945
    vertex 41.300000000000004 10.617691453623978 0.0
    vertex 42.045584412271566 10.045584412271571 0.0
  endloop
endfacet
facet normal -0.4880299559599072 -0.6360130213135261 -0.5977576421974138
  outer loop
    vertex 41.300000000000004 10.617691453623978 0.0
    vertex 40.98492424049175 8.98492424049175 1.9945
    vertex 40.55 9.318653347947322 1.9945
  endloop
endfacet
facet normal -0.6360130213135263 -0.48802995595990717 -0.5977576421974137
  outer loop
    vertex 40.98492424049175 8.98492424049175 1.9945
    vertex 42.61769145362398 9.3 0.0
    vertex 41.31865334794732 8.55 1.9945
  endloop
endfacet
facet normal -0.6360130213135263 -0.48802995595990717 -0.5977576421974137
  outer loop
    vertex 42.61769145362398 9.3 0.0
    vertex 40.98492424049175 8.98492424049175 1.9945
    vertex 42.045584412271566 10.045584412271571 0.0
  endloop
endfacet
facet normal -0.6087614290087182 -0.793353340291237 -3.1218946520315697e-16
  outer loop
    vertex 40.98492424049174 8.98492424049175 13.000000000000007
    vertex 40.55 9.318653347947322 1.9945
    vertex 40.98492424049175 8.98492424049175 1.9945
  endloop
endfacet
facet normal -0.6087614290087182 -0.793353340291237 -3.1218946520315697e-16
  outer loop
    vertex 40.55 9.318653347947322 1.9945
    vertex 40.98492424049174 8.98492424049175 13.000000000000007
    vertex 40.54999999999999 9.318653347947322 13.000000000000007
  endloop
endfacet
facet normal -0.7933533402912345 0.6087614290087217 -4.059368960779542e-16
  outer loop
    vertex 41.31865334794732 6.450000000000002 13.000000000000007
    vertex 40.98492424049175 6.0150757595082505 1.9945
    vertex 40.98492424049174 6.0150757595082505 13.000000000000007
  endloop
endfacet
facet normal -0.7933533402912345 0.6087614290087217 -4.059368960779542e-16
  outer loop
    vertex 40.98492424049175 6.0150757595082505 1.9945
    vertex 41.31865334794732 6.450000000000002 13.000000000000007
    vertex 41.318653347947325 6.450000000000002 1.9945
  endloop
endfacet
facet normal 0.7933533402912336 -0.6087614290087228 4.068532321864818e-16
  outer loop
    vertex 38.01507575950825 8.98492424049175 1.9945
    vertex 37.681346652052675 8.55 13.000000000000007
    vertex 37.681346652052675 8.55 1.9945
  endloop
endfacet
facet normal 0.7933533402912336 -0.6087614290087228 4.068532321864818e-16
  outer loop
    vertex 37.681346652052675 8.55 13.000000000000007
    vertex 38.01507575950825 8.98492424049175 1.9945
    vertex 38.01507575950824 8.98492424049175 13.000000000000007
  endloop
endfacet
facet normal -0.6087614290087232 0.7933533402912333 -3.1148633577702644e-16
  outer loop
    vertex 40.55 5.681346652052679 13.000000000000007
    vertex 40.98492424049175 6.0150757595082505 1.9945
    vertex 40.550000000000004 5.681346652052679 1.9945
  endloop
endfacet
facet normal -0.6087614290087232 0.7933533402912333 -3.1148633577702644e-16
  outer loop
    vertex 40.98492424049175 6.0150757595082505 1.9945
    vertex 40.55 5.681346652052679 13.000000000000007
    vertex 40.98492424049174 6.0150757595082505 13.000000000000007
  endloop
endfacet
facet normal -0.99144486137381 0.13052619222005488 -5.081536835215175e-16
  outer loop
    vertex 41.599999999999994 7.5 13.000000000000007
    vertex 41.52844423520705 6.956480005284707 1.9945
    vertex 41.52844423520704 6.956480005284707 13.000000000000007
  endloop
endfacet
facet normal -0.99144486137381 0.13052619222005488 -5.081536835215175e-16
  outer loop
    vertex 41.52844423520705 6.956480005284707 1.9945
    vertex 41.599999999999994 7.5 13.000000000000007
    vertex 41.6 7.5 1.9945
  endloop
endfacet
facet normal 0.13052619222005235 -0.9914448613738105 6.693739156657225e-17
  outer loop
    vertex 39.49999999999999 9.600000000000001 13.000000000000007
    vertex 38.95648000528471 9.528444235207044 1.9945
    vertex 39.5 9.600000000000001 1.9945
  endloop
endfacet
facet normal 0.13052619222005235 -0.9914448613738105 6.693739156657225e-17
  outer loop
    vertex 38.95648000528471 9.528444235207044 1.9945
    vertex 39.49999999999999 9.600000000000001 13.000000000000007
    vertex 38.9564800052847 9.528444235207044 13.000000000000007
  endloop
endfacet
facet normal -0.3826834323650909 -0.9238795325112863 -1.9625050208372403e-16
  outer loop
    vertex 40.54999999999999 9.318653347947322 13.000000000000007
    vertex 40.0435199947153 9.528444235207044 1.9945
    vertex 40.55 9.318653347947322 1.9945
  endloop
endfacet
facet normal -0.3826834323650909 -0.9238795325112863 -1.9625050208372403e-16
  outer loop
    vertex 40.0435199947153 9.528444235207044 1.9945
    vertex 40.54999999999999 9.318653347947322 13.000000000000007
    vertex 40.04351999471529 9.528444235207044 13.000000000000007
  endloop
endfacet
facet normal -0.13052619222005235 -0.9914448613738105 -6.693739156657222e-17
  outer loop
    vertex 40.04351999471529 9.528444235207044 13.000000000000007
    vertex 39.5 9.600000000000001 1.9945
    vertex 40.0435199947153 9.528444235207044 1.9945
  endloop
endfacet
facet normal -0.13052619222005235 -0.9914448613738105 -6.693739156657222e-17
  outer loop
    vertex 39.5 9.600000000000001 1.9945
    vertex 40.04351999471529 9.528444235207044 13.000000000000007
    vertex 39.49999999999999 9.600000000000001 13.000000000000007
  endloop
endfacet
facet normal 0.3826834323650873 -0.9238795325112878 1.953664908130747e-16
  outer loop
    vertex 38.9564800052847 9.528444235207044 13.000000000000007
    vertex 38.449999999999996 9.318653347947322 1.9945
    vertex 38.95648000528471 9.528444235207044 1.9945
  endloop
endfacet
facet normal 0.3826834323650873 -0.9238795325112878 1.953664908130747e-16
  outer loop
    vertex 38.449999999999996 9.318653347947322 1.9945
    vertex 38.9564800052847 9.528444235207044 13.000000000000007
    vertex 38.44999999999999 9.318653347947322 13.000000000000007
  endloop
endfacet
facet normal -0.7933533402912377 -0.6087614290087177 -4.059368960779558e-16
  outer loop
    vertex 40.98492424049174 8.98492424049175 13.000000000000007
    vertex 41.31865334794732 8.55 1.9945
    vertex 41.31865334794731 8.55 13.000000000000007
  endloop
endfacet
facet normal -0.7933533402912377 -0.6087614290087177 -4.059368960779558e-16
  outer loop
    vertex 41.31865334794732 8.55 1.9945
    vertex 40.98492424049174 8.98492424049175 13.000000000000007
    vertex 40.98492424049175 8.98492424049175 1.9945
  endloop
endfacet
facet normal -0.9238795325112882 0.3826834323650865 -4.737906237530552e-16
  outer loop
    vertex 41.52844423520704 6.956480005284707 13.000000000000007
    vertex 41.318653347947325 6.450000000000002 1.9945
    vertex 41.31865334794732 6.450000000000002 13.000000000000007
  endloop
endfacet
facet normal -0.9238795325112882 0.3826834323650865 -4.737906237530552e-16
  outer loop
    vertex 41.318653347947325 6.450000000000002 1.9945
    vertex 41.52844423520704 6.956480005284707 13.000000000000007
    vertex 41.52844423520705 6.956480005284707 1.9945
  endloop
endfacet
facet normal 0.99144486137381 -0.13052619222005488 5.078673997561531e-16
  outer loop
    vertex 37.47155576479296 8.043519994715293 1.9945
    vertex 37.39999999999999 7.5 13.000000000000007
    vertex 37.4 7.5 1.9945
  endloop
endfacet
facet normal 0.99144486137381 -0.13052619222005488 5.078673997561531e-16
  outer loop
    vertex 37.39999999999999 7.5 13.000000000000007
    vertex 37.47155576479296 8.043519994715293 1.9945
    vertex 37.47155576479295 8.043519994715293 13.000000000000007
  endloop
endfacet
facet normal 0.13052619222005235 0.9914448613738105 6.693739156657218e-17
  outer loop
    vertex 38.9564800052847 5.471555764792957 13.000000000000007
    vertex 39.5 5.4 1.9945
    vertex 38.95648000528471 5.471555764792957 1.9945
  endloop
endfacet
facet normal 0.13052619222005235 0.9914448613738105 6.693739156657218e-17
  outer loop
    vertex 39.5 5.4 1.9945
    vertex 38.9564800052847 5.471555764792957 13.000000000000007
    vertex 39.49999999999999 5.4 13.000000000000007
  endloop
endfacet
facet normal 0.6087614290087232 -0.7933533402912332 3.1218946520315964e-16
  outer loop
    vertex 38.44999999999999 9.318653347947322 13.000000000000007
    vertex 38.01507575950825 8.98492424049175 1.9945
    vertex 38.449999999999996 9.318653347947322 1.9945
  endloop
endfacet
facet normal 0.6087614290087232 -0.7933533402912332 3.1218946520315964e-16
  outer loop
    vertex 38.01507575950825 8.98492424049175 1.9945
    vertex 38.44999999999999 9.318653347947322 13.000000000000007
    vertex 38.01507575950824 8.98492424049175 13.000000000000007
  endloop
endfacet
facet normal -0.9238795325112849 -0.38268343236509433 -4.737906237530535e-16
  outer loop
    vertex 41.31865334794731 8.55 13.000000000000007
    vertex 41.52844423520705 8.043519994715295 1.9945
    vertex 41.52844423520704 8.043519994715295 13.000000000000007
  endloop
endfacet
facet normal -0.9238795325112849 -0.38268343236509433 -4.737906237530535e-16
  outer loop
    vertex 41.52844423520705 8.043519994715295 1.9945
    vertex 41.31865334794731 8.55 13.000000000000007
    vertex 41.31865334794732 8.55 1.9945
  endloop
endfacet
facet normal 0.9238795325112886 -0.3826834323650857 4.737906237530554e-16
  outer loop
    vertex 37.681346652052675 8.55 1.9945
    vertex 37.47155576479295 8.043519994715293 13.000000000000007
    vertex 37.47155576479296 8.043519994715293 1.9945
  endloop
endfacet
facet normal 0.9238795325112886 -0.3826834323650857 4.737906237530554e-16
  outer loop
    vertex 37.47155576479295 8.043519994715293 13.000000000000007
    vertex 37.681346652052675 8.55 1.9945
    vertex 37.681346652052675 8.55 13.000000000000007
  endloop
endfacet
facet normal 0.3826834323650909 0.9238795325112863 1.9625050208372398e-16
  outer loop
    vertex 38.449999999999996 5.681346652052679 13.000000000000007
    vertex 38.95648000528471 5.471555764792957 1.9945
    vertex 38.45 5.681346652052679 1.9945
  endloop
endfacet
facet normal 0.3826834323650909 0.9238795325112863 1.9625050208372398e-16
  outer loop
    vertex 38.95648000528471 5.471555764792957 1.9945
    vertex 38.449999999999996 5.681346652052679 13.000000000000007
    vertex 38.9564800052847 5.471555764792957 13.000000000000007
  endloop
endfacet
facet normal -0.13052619222005235 0.9914448613738105 -6.693739156657221e-17
  outer loop
    vertex 39.49999999999999 5.4 13.000000000000007
    vertex 40.0435199947153 5.471555764792957 1.9945
    vertex 39.5 5.4 1.9945
  endloop
endfacet
facet normal -0.13052619222005235 0.9914448613738105 -6.693739156657221e-17
  outer loop
    vertex 40.0435199947153 5.471555764792957 1.9945
    vertex 39.49999999999999 5.4 13.000000000000007
    vertex 40.04351999471529 5.471555764792957 13.000000000000007
  endloop
endfacet
facet normal 0.99144486137381 0.1305261922200545 5.078673997561531e-16
  outer loop
    vertex 37.4 7.5 1.9945
    vertex 37.47155576479295 6.956480005284706 13.000000000000007
    vertex 37.47155576479296 6.956480005284706 1.9945
  endloop
endfacet
facet normal 0.99144486137381 0.1305261922200545 5.078673997561531e-16
  outer loop
    vertex 37.47155576479295 6.956480005284706 13.000000000000007
    vertex 37.4 7.5 1.9945
    vertex 37.39999999999999 7.5 13.000000000000007
  endloop
endfacet
facet normal -0.38268343236508734 0.9238795325112878 -1.9536649081307474e-16
  outer loop
    vertex 40.04351999471529 5.471555764792957 13.000000000000007
    vertex 40.550000000000004 5.681346652052679 1.9945
    vertex 40.0435199947153 5.471555764792957 1.9945
  endloop
endfacet
facet normal -0.38268343236508734 0.9238795325112878 -1.9536649081307474e-16
  outer loop
    vertex 40.550000000000004 5.681346652052679 1.9945
    vertex 40.04351999471529 5.471555764792957 13.000000000000007
    vertex 40.55 5.681346652052679 13.000000000000007
  endloop
endfacet
facet normal -0.99144486137381 -0.13052619222005452 -5.081536835215175e-16
  outer loop
    vertex 41.52844423520704 8.043519994715295 13.000000000000007
    vertex 41.6 7.5 1.9945
    vertex 41.599999999999994 7.5 13.000000000000007
  endloop
endfacet
facet normal -0.99144486137381 -0.13052619222005452 -5.081536835215175e-16
  outer loop
    vertex 41.6 7.5 1.9945
    vertex 41.52844423520704 8.043519994715295 13.000000000000007
    vertex 41.52844423520705 8.043519994715295 1.9945
  endloop
endfacet
facet normal 0.9238795325112886 0.3826834323650857 4.737906237530554e-16
  outer loop
    vertex 37.47155576479296 6.956480005284706 1.9945
    vertex 37.681346652052675 6.449999999999999 13.000000000000007
    vertex 37.681346652052675 6.449999999999999 1.9945
  endloop
endfacet
facet normal 0.9238795325112886 0.3826834323650857 4.737906237530554e-16
  outer loop
    vertex 37.681346652052675 6.449999999999999 13.000000000000007
    vertex 37.47155576479296 6.956480005284706 1.9945
    vertex 37.47155576479295 6.956480005284706 13.000000000000007
  endloop
endfacet
facet normal 0.6087614290087183 0.7933533402912372 3.12189465203157e-16
  outer loop
    vertex 38.01507575950824 6.0150757595082505 13.000000000000007
    vertex 38.45 5.681346652052679 1.9945
    vertex 38.01507575950825 6.0150757595082505 1.9945
  endloop
endfacet
facet normal 0.6087614290087183 0.7933533402912372 3.12189465203157e-16
  outer loop
    vertex 38.45 5.681346652052679 1.9945
    vertex 38.01507575950824 6.0150757595082505 13.000000000000007
    vertex 38.449999999999996 5.681346652052679 13.000000000000007
  endloop
endfacet
facet normal 0.7933533402912326 0.6087614290087239 4.068532321864813e-16
  outer loop
    vertex 37.681346652052675 6.449999999999999 1.9945
    vertex 38.01507575950824 6.0150757595082505 13.000000000000007
    vertex 38.01507575950825 6.0150757595082505 1.9945
  endloop
endfacet
facet normal 0.7933533402912326 0.6087614290087239 4.068532321864813e-16
  outer loop
    vertex 38.01507575950824 6.0150757595082505 13.000000000000007
    vertex 37.681346652052675 6.449999999999999 1.9945
    vertex 37.681346652052675 6.449999999999999 13.000000000000007
  endloop
endfacet
endsolid servoSproketSupportV2
