solid servoSproketSupportCenterV2
facet normal 2.2184841086453115e-18 -2.6195937138899613e-18 -1.0
  outer loop
    vertex 19.999999999999996 15.0 1.4099832412739487e-15
    vertex 37.47155576479296 8.043519994715293 0.0
    vertex 37.4 7.5 0.0
  endloop
endfacet
facet normal 2.2184841086453115e-18 -2.6195937138899613e-18 -1.0
  outer loop
    vertex 37.47155576479296 8.043519994715293 0.0
    vertex 19.999999999999996 15.0 1.4099832412739487e-15
    vertex 37.681346652052675 8.55 0.0
  endloop
endfacet
facet normal 2.2184841086453115e-18 -2.6195937138899613e-18 -1.0
  outer loop
    vertex 37.681346652052675 8.55 0.0
    vertex 19.999999999999996 15.0 1.4099832412739487e-15
    vertex 38.01507575950825 8.98492424049175 0.0
  endloop
endfacet
facet normal 2.2184841086453115e-18 -2.6195937138899613e-18 -1.0
  outer loop
    vertex 38.01507575950825 8.98492424049175 0.0
    vertex 19.999999999999996 15.0 1.4099832412739487e-15
    vertex 38.449999999999996 9.318653347947322 0.0
  endloop
endfacet
facet normal 2.2184841086453115e-18 -2.6195937138899613e-18 -1.0
  outer loop
    vertex 38.449999999999996 9.318653347947322 0.0
    vertex 19.999999999999996 15.0 1.4099832412739487e-15
    vertex 50.0 15.0 1.4099832412739487e-15
  endloop
endfacet
facet normal 2.2184841086453115e-18 -2.6195937138899613e-18 -1.0
  outer loop
    vertex 38.449999999999996 9.318653347947322 0.0
    vertex 50.0 15.0 1.4099832412739487e-15
    vertex 38.95648000528471 9.528444235207044 0.0
  endloop
endfacet
facet normal 2.2184841086453115e-18 -2.6195937138899613e-18 -1.0
  outer loop
    vertex 38.95648000528471 9.528444235207044 0.0
    vertex 50.0 15.0 1.4099832412739487e-15
    vertex 39.5 9.600000000000001 0.0
  endloop
endfacet
facet normal 2.2184841086453115e-18 -2.6195937138899613e-18 -1.0
  outer loop
    vertex 39.5 9.600000000000001 0.0
    vertex 50.0 15.0 1.4099832412739487e-15
    vertex 40.0435199947153 9.528444235207044 0.0
  endloop
endfacet
facet normal 2.2184841086453115e-18 -2.6195937138899613e-18 -1.0
  outer loop
    vertex 40.0435199947153 9.528444235207044 0.0
    vertex 50.0 15.0 1.4099832412739487e-15
    vertex 40.55 9.318653347947322 0.0
  endloop
endfacet
facet normal 2.2184841086453115e-18 -2.6195937138899613e-18 -1.0
  outer loop
    vertex 40.55 9.318653347947322 0.0
    vertex 50.0 15.0 1.4099832412739487e-15
    vertex 40.98492424049175 8.98492424049175 0.0
  endloop
endfacet
facet normal 2.2184841086453115e-18 -2.6195937138899613e-18 -1.0
  outer loop
    vertex 40.98492424049175 8.98492424049175 0.0
    vertex 50.0 15.0 1.4099832412739487e-15
    vertex 41.31865334794732 8.55 0.0
  endloop
endfacet
facet normal 2.2184841086453115e-18 -2.6195937138899613e-18 -1.0
  outer loop
    vertex 41.31865334794732 8.55 0.0
    vertex 50.0 15.0 1.4099832412739487e-15
    vertex 41.52844423520705 8.043519994715295 0.0
  endloop
endfacet
facet normal 2.2184841086453115e-18 -2.6195937138899613e-18 -1.0
  outer loop
    vertex 41.52844423520705 8.043519994715295 0.0
    vertex 50.0 15.0 1.4099832412739487e-15
    vertex 41.6 7.5 0.0
  endloop
endfacet
facet normal 2.2184841086453115e-18 -2.6195937138899613e-18 -1.0
  outer loop
    vertex 0.0 0.0 1.4099832412739487e-15
    vertex 38.45 5.681346652052679 0.0
    vertex 50.0 0.0 1.4099832412739487e-15
  endloop
endfacet
facet normal 2.2184841086453115e-18 -2.6195937138899613e-18 -1.0
  outer loop
    vertex 38.45 5.681346652052679 0.0
    vertex 0.0 0.0 1.4099832412739487e-15
    vertex 19.999999999999996 15.0 1.4099832412739487e-15
  endloop
endfacet
facet normal 2.2184841086453115e-18 -2.6195937138899613e-18 -1.0
  outer loop
    vertex 19.999999999999996 15.0 1.4099832412739487e-15
    vertex 0.0 0.0 1.4099832412739487e-15
    vertex 2.8199664825478975e-15 34.000000149011605 1.233735336114705e-15
  endloop
endfacet
facet normal 2.2184841086453115e-18 -2.6195937138899613e-18 -1.0
  outer loop
    vertex 19.999999999999996 15.0 1.4099832412739487e-15
    vertex 2.8199664825478975e-15 34.000000149011605 1.233735336114705e-15
    vertex 0.3407417724624421 36.588190582964856 1.233735336114705e-15
  endloop
endfacet
facet normal 2.2184841086453115e-18 -2.6195937138899613e-18 -1.0
  outer loop
    vertex 19.999999999999996 15.0 1.4099832412739487e-15
    vertex 0.3407417724624421 36.588190582964856 1.233735336114705e-15
    vertex 1.3397460242437875 39.00000010753986 1.233735336114705e-15
  endloop
endfacet
facet normal 2.2184841086453115e-18 -2.6195937138899613e-18 -1.0
  outer loop
    vertex 19.999999999999996 15.0 1.4099832412739487e-15
    vertex 1.3397460242437875 39.00000010753986 1.233735336114705e-15
    vertex 2.928932267159869 41.07106789089081 1.233735336114705e-15
  endloop
endfacet
facet normal 2.2184841086453115e-18 -2.6195937138899613e-18 -1.0
  outer loop
    vertex 19.999999999999996 15.0 1.4099832412739487e-15
    vertex 2.928932267159869 41.07106789089081 1.233735336114705e-15
    vertex 5.000000086031895 42.660254087514915 1.233735336114705e-15
  endloop
endfacet
facet normal 2.2184841086453115e-18 -2.6195937138899613e-18 -1.0
  outer loop
    vertex 19.999999999999996 15.0 1.4099832412739487e-15
    vertex 5.000000086031895 42.660254087514915 1.233735336114705e-15
    vertex 7.4118096329363885 43.65925828538812 1.233735336114705e-15
  endloop
endfacet
facet normal 2.2184841086453115e-18 -2.6195937138899613e-18 -1.0
  outer loop
    vertex 19.999999999999996 15.0 1.4099832412739487e-15
    vertex 7.4118096329363885 43.65925828538812 1.233735336114705e-15
    vertex 10.000000074505806 43.99999999999999 1.233735336114705e-15
  endloop
endfacet
facet normal 2.2184841086453115e-18 -2.6195937138899613e-18 -1.0
  outer loop
    vertex 19.999999999999996 15.0 1.4099832412739487e-15
    vertex 10.000000074505806 43.99999999999999 1.233735336114705e-15
    vertex 12.588190510997775 43.659258246821075 1.4099832412739487e-15
  endloop
endfacet
facet normal 2.2184841086453115e-18 -2.6195937138899613e-18 -1.0
  outer loop
    vertex 19.999999999999996 15.0 1.4099832412739487e-15
    vertex 12.588190510997775 43.659258246821075 1.4099832412739487e-15
    vertex 15.000000043015945 42.66025401300911 1.4099832412739487e-15
  endloop
endfacet
facet normal 2.2184841086453115e-18 -2.6195937138899613e-18 -1.0
  outer loop
    vertex 19.999999999999996 15.0 1.4099832412739487e-15
    vertex 15.000000043015945 42.66025401300911 1.4099832412739487e-15
    vertex 17.071067838207252 41.07106778552369 1.4099832412739487e-15
  endloop
endfacet
facet normal 2.2184841086453115e-18 -2.6195937138899613e-18 -1.0
  outer loop
    vertex 19.999999999999996 15.0 1.4099832412739487e-15
    vertex 17.071067838207252 41.07106778552369 1.4099832412739487e-15
    vertex 18.660254050262015 38.99999997849202 1.4099832412739487e-15
  endloop
endfacet
facet normal 2.2184841086453115e-18 -2.6195937138899613e-18 -1.0
  outer loop
    vertex 19.999999999999996 15.0 1.4099832412739487e-15
    vertex 18.660254050262015 38.99999997849202 1.4099832412739487e-15
    vertex 19.6592582661046 36.58819043903068 1.4099832412739487e-15
  endloop
endfacet
facet normal 2.2184841086453115e-18 -2.6195937138899613e-18 -1.0
  outer loop
    vertex 19.999999999999996 15.0 1.4099832412739487e-15
    vertex 19.6592582661046 36.58819043903068 1.4099832412739487e-15
    vertex 19.999999999999996 33.99999999999999 1.4099832412739487e-15
  endloop
endfacet
facet normal 2.2184841086453115e-18 -2.6195937138899613e-18 -1.0
  outer loop
    vertex 38.45 5.681346652052679 0.0
    vertex 19.999999999999996 15.0 1.4099832412739487e-15
    vertex 38.01507575950825 6.0150757595082505 0.0
  endloop
endfacet
facet normal 2.2184841086453115e-18 -2.6195937138899613e-18 -1.0
  outer loop
    vertex 38.01507575950825 6.0150757595082505 0.0
    vertex 19.999999999999996 15.0 1.4099832412739487e-15
    vertex 37.681346652052675 6.449999999999999 0.0
  endloop
endfacet
facet normal 2.2184841086453115e-18 -2.6195937138899613e-18 -1.0
  outer loop
    vertex 37.681346652052675 6.449999999999999 0.0
    vertex 19.999999999999996 15.0 1.4099832412739487e-15
    vertex 37.47155576479296 6.956480005284706 0.0
  endloop
endfacet
facet normal 2.2184841086453115e-18 -2.6195937138899613e-18 -1.0
  outer loop
    vertex 37.47155576479296 6.956480005284706 0.0
    vertex 19.999999999999996 15.0 1.4099832412739487e-15
    vertex 37.4 7.5 0.0
  endloop
endfacet
facet normal 2.2184841086453115e-18 -2.6195937138899613e-18 -1.0
  outer loop
    vertex 50.0 0.0 1.4099832412739487e-15
    vertex 38.45 5.681346652052679 0.0
    vertex 38.95648000528471 5.471555764792957 0.0
  endloop
endfacet
facet normal 2.2184841086453115e-18 -2.6195937138899613e-18 -1.0
  outer loop
    vertex 50.0 0.0 1.4099832412739487e-15
    vertex 38.95648000528471 5.471555764792957 0.0
    vertex 39.5 5.4 0.0
  endloop
endfacet
facet normal 2.2184841086453115e-18 -2.6195937138899613e-18 -1.0
  outer loop
    vertex 50.0 0.0 1.4099832412739487e-15
    vertex 39.5 5.4 0.0
    vertex 40.0435199947153 5.471555764792957 0.0
  endloop
endfacet
facet normal 2.2184841086453115e-18 -2.6195937138899613e-18 -1.0
  outer loop
    vertex 50.0 0.0 1.4099832412739487e-15
    vertex 40.0435199947153 5.471555764792957 0.0
    vertex 40.550000000000004 5.681346652052679 0.0
  endloop
endfacet
facet normal 2.2184841086453115e-18 -2.6195937138899613e-18 -1.0
  outer loop
    vertex 50.0 0.0 1.4099832412739487e-15
    vertex 40.550000000000004 5.681346652052679 0.0
    vertex 40.98492424049175 6.0150757595082505 0.0
  endloop
endfacet
facet normal 2.2184841086453115e-18 -2.6195937138899613e-18 -1.0
  outer loop
    vertex 50.0 0.0 1.4099832412739487e-15
    vertex 40.98492424049175 6.0150757595082505 0.0
    vertex 41.318653347947325 6.450000000000002 0.0
  endloop
endfacet
facet normal 2.2184841086453115e-18 -2.6195937138899613e-18 -1.0
  outer loop
    vertex 50.0 0.0 1.4099832412739487e-15
    vertex 41.318653347947325 6.450000000000002 0.0
    vertex 41.52844423520705 6.956480005284707 0.0
  endloop
endfacet
facet normal 2.2184841086453115e-18 -2.6195937138899613e-18 -1.0
  outer loop
    vertex 50.0 0.0 1.4099832412739487e-15
    vertex 41.52844423520705 6.956480005284707 0.0
    vertex 41.6 7.5 0.0
  endloop
endfacet
facet normal 2.2184841086453115e-18 -2.6195937138899613e-18 -1.0
  outer loop
    vertex 50.0 0.0 1.4099832412739487e-15
    vertex 41.6 7.5 0.0
    vertex 50.0 15.0 1.4099832412739487e-15
  endloop
endfacet
facet normal 1.0 -0.0 -0.0
  outer loop
    vertex 19.999999999999996 33.99999999999999 1.4099832412739487e-15
    vertex 19.999999999999996 15.0 3.0000000000000013
    vertex 19.999999999999996 15.0 1.4099832412739487e-15
  endloop
endfacet
facet normal 1.0 -0.0 -0.0
  outer loop
    vertex 19.999999999999996 15.0 3.0000000000000013
    vertex 19.999999999999996 33.99999999999999 1.4099832412739487e-15
    vertex 19.999999999999996 33.99999999999999 3.0000000000000013
  endloop
endfacet
facet normal -1.0 8.294019029967195e-17 1.3643499019890175e-32
  outer loop
    vertex 2.8199664825478975e-15 34.000000149011605 3.0000000000000013
    vertex 0.0 0.0 1.4099832412739487e-15
    vertex 0.0 0.0 3.0000000000000013
  endloop
endfacet
facet normal -1.0 8.294019029967195e-17 1.3643499019890175e-32
  outer loop
    vertex 0.0 0.0 1.4099832412739487e-15
    vertex 2.8199664825478975e-15 34.000000149011605 3.0000000000000013
    vertex 2.8199664825478975e-15 34.000000149011605 1.233735336114705e-15
  endloop
endfacet
facet normal -0.7933533402912345 0.6087614290087214 1.4865124485677901e-31
  outer loop
    vertex 41.318653347947325 6.450000000000002 14.000000000000002
    vertex 40.98492424049175 6.0150757595082505 0.0
    vertex 40.98492424049175 6.0150757595082505 14.000000000000002
  endloop
endfacet
facet normal -0.7933533402912345 0.6087614290087214 1.4865124485677901e-31
  outer loop
    vertex 40.98492424049175 6.0150757595082505 0.0
    vertex 41.318653347947325 6.450000000000002 14.000000000000002
    vertex 41.318653347947325 6.450000000000002 0.0
  endloop
endfacet
facet normal -0.9238795325112882 0.3826834323650865 9.344607903257963e-32
  outer loop
    vertex 41.52844423520705 6.956480005284707 14.000000000000002
    vertex 41.318653347947325 6.450000000000002 0.0
    vertex 41.318653347947325 6.450000000000002 14.000000000000002
  endloop
endfacet
facet normal -0.9238795325112882 0.3826834323650865 9.344607903257963e-32
  outer loop
    vertex 41.318653347947325 6.450000000000002 0.0
    vertex 41.52844423520705 6.956480005284707 14.000000000000002
    vertex 41.52844423520705 6.956480005284707 0.0
  endloop
endfacet
facet normal -0.9914448613738102 0.13052619222005488 3.1872717349259613e-32
  outer loop
    vertex 41.6 7.5 14.000000000000002
    vertex 41.52844423520705 6.956480005284707 0.0
    vertex 41.52844423520705 6.956480005284707 14.000000000000002
  endloop
endfacet
facet normal -0.9914448613738102 0.13052619222005488 3.1872717349259613e-32
  outer loop
    vertex 41.52844423520705 6.956480005284707 0.0
    vertex 41.6 7.5 14.000000000000002
    vertex 41.6 7.5 0.0
  endloop
endfacet
facet normal -0.7933533402912376 -0.6087614290087175 -1.4865124485677818e-31
  outer loop
    vertex 40.98492424049175 8.98492424049175 14.000000000000002
    vertex 41.31865334794732 8.55 0.0
    vertex 41.31865334794732 8.55 14.000000000000002
  endloop
endfacet
facet normal -0.7933533402912376 -0.6087614290087175 -1.4865124485677818e-31
  outer loop
    vertex 41.31865334794732 8.55 0.0
    vertex 40.98492424049175 8.98492424049175 14.000000000000002
    vertex 40.98492424049175 8.98492424049175 0.0
  endloop
endfacet
facet normal -0.6087614290087183 -0.793353340291237 -1.937260740017855e-31
  outer loop
    vertex 40.98492424049175 8.98492424049175 14.000000000000002
    vertex 40.55 9.318653347947322 0.0
    vertex 40.98492424049175 8.98492424049175 0.0
  endloop
endfacet
facet normal -0.6087614290087183 -0.793353340291237 -1.937260740017855e-31
  outer loop
    vertex 40.55 9.318653347947322 0.0
    vertex 40.98492424049175 8.98492424049175 14.000000000000002
    vertex 40.55 9.318653347947322 14.000000000000002
  endloop
endfacet
facet normal 0.13052619222005232 -0.9914448613738104 -2.4209732388935937e-31
  outer loop
    vertex 39.5 9.600000000000001 14.000000000000002
    vertex 38.95648000528471 9.528444235207044 0.0
    vertex 39.5 9.600000000000001 0.0
  endloop
endfacet
facet normal 0.13052619222005232 -0.9914448613738104 -2.4209732388935937e-31
  outer loop
    vertex 38.95648000528471 9.528444235207044 0.0
    vertex 39.5 9.600000000000001 14.000000000000002
    vertex 38.95648000528471 9.528444235207044 14.000000000000002
  endloop
endfacet
facet normal 0.3826834323650873 -0.9238795325112878 -2.2559879135104414e-31
  outer loop
    vertex 38.95648000528471 9.528444235207044 14.000000000000002
    vertex 38.449999999999996 9.318653347947322 0.0
    vertex 38.95648000528471 9.528444235207044 0.0
  endloop
endfacet
facet normal 0.3826834323650873 -0.9238795325112878 -2.2559879135104414e-31
  outer loop
    vertex 38.449999999999996 9.318653347947322 0.0
    vertex 38.95648000528471 9.528444235207044 14.000000000000002
    vertex 38.449999999999996 9.318653347947322 14.000000000000002
  endloop
endfacet
facet normal -0.13052619222005232 -0.9914448613738104 -2.4209732388935937e-31
  outer loop
    vertex 40.0435199947153 9.528444235207044 14.000000000000002
    vertex 39.5 9.600000000000001 0.0
    vertex 40.0435199947153 9.528444235207044 0.0
  endloop
endfacet
facet normal -0.13052619222005232 -0.9914448613738104 -2.4209732388935937e-31
  outer loop
    vertex 39.5 9.600000000000001 0.0
    vertex 40.0435199947153 9.528444235207044 14.000000000000002
    vertex 39.5 9.600000000000001 14.000000000000002
  endloop
endfacet
facet normal 0.7933533402912337 -0.6087614290087228 -1.4865124485677934e-31
  outer loop
    vertex 38.01507575950825 8.98492424049175 0.0
    vertex 37.681346652052675 8.55 14.000000000000002
    vertex 37.681346652052675 8.55 0.0
  endloop
endfacet
facet normal 0.7933533402912337 -0.6087614290087228 -1.4865124485677934e-31
  outer loop
    vertex 37.681346652052675 8.55 14.000000000000002
    vertex 38.01507575950825 8.98492424049175 0.0
    vertex 38.01507575950825 8.98492424049175 14.000000000000002
  endloop
endfacet
facet normal -0.6087614290087232 0.7933533402912332 1.9372607400178452e-31
  outer loop
    vertex 40.550000000000004 5.681346652052679 14.000000000000002
    vertex 40.98492424049175 6.0150757595082505 0.0
    vertex 40.550000000000004 5.681346652052679 0.0
  endloop
endfacet
facet normal -0.6087614290087232 0.7933533402912332 1.9372607400178452e-31
  outer loop
    vertex 40.98492424049175 6.0150757595082505 0.0
    vertex 40.550000000000004 5.681346652052679 14.000000000000002
    vertex 40.98492424049175 6.0150757595082505 14.000000000000002
  endloop
endfacet
facet normal -0.38268343236509095 -0.9238795325112864 -2.2559879135104383e-31
  outer loop
    vertex 40.55 9.318653347947322 14.000000000000002
    vertex 40.0435199947153 9.528444235207044 0.0
    vertex 40.55 9.318653347947322 0.0
  endloop
endfacet
facet normal -0.38268343236509095 -0.9238795325112864 -2.2559879135104383e-31
  outer loop
    vertex 40.0435199947153 9.528444235207044 0.0
    vertex 40.55 9.318653347947322 14.000000000000002
    vertex 40.0435199947153 9.528444235207044 14.000000000000002
  endloop
endfacet
facet normal 0.6087614290087232 -0.7933533402912332 -1.9372607400178452e-31
  outer loop
    vertex 38.449999999999996 9.318653347947322 14.000000000000002
    vertex 38.01507575950825 8.98492424049175 0.0
    vertex 38.449999999999996 9.318653347947322 0.0
  endloop
endfacet
facet normal 0.6087614290087232 -0.7933533402912332 -1.9372607400178452e-31
  outer loop
    vertex 38.01507575950825 8.98492424049175 0.0
    vertex 38.449999999999996 9.318653347947322 14.000000000000002
    vertex 38.01507575950825 8.98492424049175 14.000000000000002
  endloop
endfacet
facet normal -0.9914448613738102 -0.13052619222005452 -3.1872717349259657e-32
  outer loop
    vertex 41.52844423520705 8.043519994715295 14.000000000000002
    vertex 41.6 7.5 0.0
    vertex 41.6 7.5 14.000000000000002
  endloop
endfacet
facet normal -0.9914448613738102 -0.13052619222005452 -3.1872717349259657e-32
  outer loop
    vertex 41.6 7.5 0.0
    vertex 41.52844423520705 8.043519994715295 14.000000000000002
    vertex 41.52844423520705 8.043519994715295 0.0
  endloop
endfacet
facet normal -0.923879532511285 -0.3826834323650944 -9.344607903258166e-32
  outer loop
    vertex 41.31865334794732 8.55 14.000000000000002
    vertex 41.52844423520705 8.043519994715295 0.0
    vertex 41.52844423520705 8.043519994715295 14.000000000000002
  endloop
endfacet
facet normal -0.923879532511285 -0.3826834323650944 -9.344607903258166e-32
  outer loop
    vertex 41.52844423520705 8.043519994715295 0.0
    vertex 41.31865334794732 8.55 14.000000000000002
    vertex 41.31865334794732 8.55 0.0
  endloop
endfacet
facet normal 0.9238795325112886 -0.3826834323650857 -9.344607903257942e-32
  outer loop
    vertex 37.681346652052675 8.55 0.0
    vertex 37.47155576479296 8.043519994715293 14.000000000000002
    vertex 37.47155576479296 8.043519994715293 0.0
  endloop
endfacet
facet normal 0.9238795325112886 -0.3826834323650857 -9.344607903257942e-32
  outer loop
    vertex 37.47155576479296 8.043519994715293 14.000000000000002
    vertex 37.681346652052675 8.55 0.0
    vertex 37.681346652052675 8.55 14.000000000000002
  endloop
endfacet
facet normal 0.9238795325112886 0.3826834323650857 9.344607903257954e-32
  outer loop
    vertex 37.47155576479296 6.956480005284706 0.0
    vertex 37.681346652052675 6.449999999999999 14.000000000000002
    vertex 37.681346652052675 6.449999999999999 0.0
  endloop
endfacet
facet normal 0.9238795325112886 0.3826834323650857 9.344607903257954e-32
  outer loop
    vertex 37.681346652052675 6.449999999999999 14.000000000000002
    vertex 37.47155576479296 6.956480005284706 0.0
    vertex 37.47155576479296 6.956480005284706 14.000000000000002
  endloop
endfacet
facet normal 0.6087614290087183 0.793353340291237 1.937260740017855e-31
  outer loop
    vertex 38.01507575950825 6.0150757595082505 14.000000000000002
    vertex 38.45 5.681346652052679 0.0
    vertex 38.01507575950825 6.0150757595082505 0.0
  endloop
endfacet
facet normal 0.6087614290087183 0.793353340291237 1.937260740017855e-31
  outer loop
    vertex 38.45 5.681346652052679 0.0
    vertex 38.01507575950825 6.0150757595082505 14.000000000000002
    vertex 38.45 5.681346652052679 14.000000000000002
  endloop
endfacet
facet normal 0.9914448613738102 -0.13052619222005488 -3.1872717349259613e-32
  outer loop
    vertex 37.47155576479296 8.043519994715293 0.0
    vertex 37.4 7.5 14.000000000000002
    vertex 37.4 7.5 0.0
  endloop
endfacet
facet normal 0.9914448613738102 -0.13052619222005488 -3.1872717349259613e-32
  outer loop
    vertex 37.4 7.5 14.000000000000002
    vertex 37.47155576479296 8.043519994715293 0.0
    vertex 37.47155576479296 8.043519994715293 14.000000000000002
  endloop
endfacet
facet normal 0.7933533402912326 0.608761429008724 1.4865124485677976e-31
  outer loop
    vertex 37.681346652052675 6.449999999999999 0.0
    vertex 38.01507575950825 6.0150757595082505 14.000000000000002
    vertex 38.01507575950825 6.0150757595082505 0.0
  endloop
endfacet
facet normal 0.7933533402912326 0.608761429008724 1.4865124485677976e-31
  outer loop
    vertex 38.01507575950825 6.0150757595082505 14.000000000000002
    vertex 37.681346652052675 6.449999999999999 0.0
    vertex 37.681346652052675 6.449999999999999 14.000000000000002
  endloop
endfacet
facet normal -0.13052619222005232 0.9914448613738104 2.4209732388935937e-31
  outer loop
    vertex 39.5 5.4 14.000000000000002
    vertex 40.0435199947153 5.471555764792957 0.0
    vertex 39.5 5.4 0.0
  endloop
endfacet
facet normal -0.13052619222005232 0.9914448613738104 2.4209732388935937e-31
  outer loop
    vertex 40.0435199947153 5.471555764792957 0.0
    vertex 39.5 5.4 14.000000000000002
    vertex 40.0435199947153 5.471555764792957 14.000000000000002
  endloop
endfacet
facet normal 0.9914448613738102 0.13052619222005452 3.1872717349259657e-32
  outer loop
    vertex 37.4 7.5 0.0
    vertex 37.47155576479296 6.956480005284706 14.000000000000002
    vertex 37.47155576479296 6.956480005284706 0.0
  endloop
endfacet
facet normal 0.9914448613738102 0.13052619222005452 3.1872717349259657e-32
  outer loop
    vertex 37.47155576479296 6.956480005284706 14.000000000000002
    vertex 37.4 7.5 0.0
    vertex 37.4 7.5 14.000000000000002
  endloop
endfacet
facet normal 0.38268343236509095 0.9238795325112864 2.2559879135104383e-31
  outer loop
    vertex 38.45 5.681346652052679 14.000000000000002
    vertex 38.95648000528471 5.471555764792957 0.0
    vertex 38.45 5.681346652052679 0.0
  endloop
endfacet
facet normal 0.38268343236509095 0.9238795325112864 2.2559879135104383e-31
  outer loop
    vertex 38.95648000528471 5.471555764792957 0.0
    vertex 38.45 5.681346652052679 14.000000000000002
    vertex 38.95648000528471 5.471555764792957 14.000000000000002
  endloop
endfacet
facet normal 0.13052619222005232 0.9914448613738104 2.4209732388935937e-31
  outer loop
    vertex 38.95648000528471 5.471555764792957 14.000000000000002
    vertex 39.5 5.4 0.0
    vertex 38.95648000528471 5.471555764792957 0.0
  endloop
endfacet
facet normal 0.13052619222005232 0.9914448613738104 2.4209732388935937e-31
  outer loop
    vertex 39.5 5.4 0.0
    vertex 38.95648000528471 5.471555764792957 14.000000000000002
    vertex 39.5 5.4 14.000000000000002
  endloop
endfacet
facet normal -0.3826834323650873 0.9238795325112878 2.2559879135104414e-31
  outer loop
    vertex 40.0435199947153 5.471555764792957 14.000000000000002
    vertex 40.550000000000004 5.681346652052679 0.0
    vertex 40.0435199947153 5.471555764792957 0.0
  endloop
endfacet
facet normal -0.3826834323650873 0.9238795325112878 2.2559879135104414e-31
  outer loop
    vertex 40.550000000000004 5.681346652052679 0.0
    vertex 40.0435199947153 5.471555764792957 14.000000000000002
    vertex 40.550000000000004 5.681346652052679 14.000000000000002
  endloop
endfacet
facet normal -0.9914448595098598 0.13052620637816106 1.4416276795544644e-32
  outer loop
    vertex 0.3407417724624421 36.588190582964856 3.0000000000000013
    vertex 2.8199664825478975e-15 34.000000149011605 1.233735336114705e-15
    vertex 2.8199664825478975e-15 34.000000149011605 3.0000000000000013
  endloop
endfacet
facet normal -0.9914448595098598 0.13052620637816106 1.4416276795544644e-32
  outer loop
    vertex 2.8199664825478975e-15 34.000000149011605 1.233735336114705e-15
    vertex 0.3407417724624421 36.588190582964856 3.0000000000000013
    vertex 0.3407417724624421 36.588190582964856 1.233735336114705e-15
  endloop
endfacet
facet normal -0.9238795275216625 0.382683444411108 -0.0
  outer loop
    vertex 1.3397460242437875 39.00000010753986 3.0000000000000013
    vertex 0.3407417724624421 36.588190582964856 1.233735336114705e-15
    vertex 0.3407417724624421 36.588190582964856 3.0000000000000013
  endloop
endfacet
facet normal -0.9238795275216625 0.382683444411108 -0.0
  outer loop
    vertex 0.3407417724624421 36.588190582964856 1.233735336114705e-15
    vertex 1.3397460242437875 39.00000010753986 3.0000000000000013
    vertex 1.3397460242437875 39.00000010753986 1.233735336114705e-15
  endloop
endfacet
facet normal -0.7933533331098263 0.608761438367715 -0.0
  outer loop
    vertex 2.928932267159869 41.07106789089081 3.0000000000000013
    vertex 1.3397460242437875 39.00000010753986 1.233735336114705e-15
    vertex 1.3397460242437875 39.00000010753986 3.0000000000000013
  endloop
endfacet
facet normal -0.7933533331098263 0.608761438367715 -0.0
  outer loop
    vertex 1.3397460242437875 39.00000010753986 1.233735336114705e-15
    vertex 2.928932267159869 41.07106789089081 3.0000000000000013
    vertex 2.928932267159869 41.07106789089081 1.233735336114705e-15
  endloop
endfacet
facet normal -0.6087614206348851 0.7933533467167051 -0.0
  outer loop
    vertex 2.928932267159869 41.07106789089081 3.0000000000000013
    vertex 5.000000086031895 42.660254087514915 1.233735336114705e-15
    vertex 2.928932267159869 41.07106789089081 1.233735336114705e-15
  endloop
endfacet
facet normal -0.6087614206348851 0.7933533467167051 -0.0
  outer loop
    vertex 5.000000086031895 42.660254087514915 1.233735336114705e-15
    vertex 2.928932267159869 41.07106789089081 3.0000000000000013
    vertex 5.000000086031895 42.660254087514915 3.0000000000000013
  endloop
endfacet
facet normal -0.3826834237607927 0.9238795360753033 -0.0
  outer loop
    vertex 5.000000086031895 42.660254087514915 3.0000000000000013
    vertex 7.4118096329363885 43.65925828538812 1.233735336114705e-15
    vertex 5.000000086031895 42.660254087514915 1.233735336114705e-15
  endloop
endfacet
facet normal -0.3826834237607927 0.9238795360753033 -0.0
  outer loop
    vertex 7.4118096329363885 43.65925828538812 1.233735336114705e-15
    vertex 5.000000086031895 42.660254087514915 3.0000000000000013
    vertex 7.4118096329363885 43.65925828538812 3.0000000000000013
  endloop
endfacet
facet normal -0.13052618421764087 0.9914448624273478 -0.0
  outer loop
    vertex 7.4118096329363885 43.65925828538812 3.0000000000000013
    vertex 10.000000074505806 43.99999999999999 1.233735336114705e-15
    vertex 7.4118096329363885 43.65925828538812 1.233735336114705e-15
  endloop
endfacet
facet normal -0.13052618421764087 0.9914448624273478 -0.0
  outer loop
    vertex 10.000000074505806 43.99999999999999 1.233735336114705e-15
    vertex 7.4118096329363885 43.65925828538812 3.0000000000000013
    vertex 10.000000074505806 43.99999999999999 3.0000000000000013
  endloop
endfacet
facet normal 0.13052619899132176 0.9914448604823559 -2.0504488190501281e-19
  outer loop
    vertex 10.000000074505806 43.99999999999999 3.0000000000000013
    vertex 12.588190510997775 43.659258246821075 1.4099832412739487e-15
    vertex 10.000000074505806 43.99999999999999 1.233735336114705e-15
  endloop
endfacet
facet normal 0.13052619899132176 0.9914448604823559 -2.0504488190501281e-19
  outer loop
    vertex 12.588190510997775 43.659258246821075 1.4099832412739487e-15
    vertex 10.000000074505806 43.99999999999999 3.0000000000000013
    vertex 12.588190510997775 43.659258246821075 3.0000000000000013
  endloop
endfacet
facet normal 0.3826834375276691 0.9238795303728764 0.0
  outer loop
    vertex 12.588190510997775 43.659258246821075 3.0000000000000013
    vertex 15.000000043015945 42.66025401300911 1.4099832412739487e-15
    vertex 12.588190510997775 43.659258246821075 1.4099832412739487e-15
  endloop
endfacet
facet normal 0.3826834375276691 0.9238795303728764 0.0
  outer loop
    vertex 15.000000043015945 42.66025401300911 1.4099832412739487e-15
    vertex 12.588190510997775 43.659258246821075 3.0000000000000013
    vertex 15.000000043015945 42.66025401300911 3.0000000000000013
  endloop
endfacet
facet normal 0.6087614324567703 0.7933533376454537 0.0
  outer loop
    vertex 15.000000043015945 42.66025401300911 3.0000000000000013
    vertex 17.071067838207252 41.07106778552369 1.4099832412739487e-15
    vertex 15.000000043015945 42.66025401300911 1.4099832412739487e-15
  endloop
endfacet
facet normal 0.6087614324567703 0.7933533376454537 0.0
  outer loop
    vertex 17.071067838207252 41.07106778552369 1.4099832412739487e-15
    vertex 15.000000043015945 42.66025401300911 3.0000000000000013
    vertex 17.071067838207252 41.07106778552369 3.0000000000000013
  endloop
endfacet
facet normal 0.7933533421810794 0.6087614265458277 0.0
  outer loop
    vertex 17.071067838207252 41.07106778552369 1.4099832412739487e-15
    vertex 18.660254050262015 38.99999997849202 3.0000000000000013
    vertex 18.660254050262015 38.99999997849202 1.4099832412739487e-15
  endloop
endfacet
facet normal 0.7933533421810794 0.6087614265458277 0.0
  outer loop
    vertex 18.660254050262015 38.99999997849202 3.0000000000000013
    vertex 17.071067838207252 41.07106778552369 1.4099832412739487e-15
    vertex 17.071067838207252 41.07106778552369 3.0000000000000013
  endloop
endfacet
facet normal 0.9238795332240901 0.3826834306442302 0.0
  outer loop
    vertex 18.660254050262015 38.99999997849202 1.4099832412739487e-15
    vertex 19.6592582661046 36.58819043903068 3.0000000000000013
    vertex 19.6592582661046 36.58819043903068 1.4099832412739487e-15
  endloop
endfacet
facet normal 0.9238795332240901 0.3826834306442302 0.0
  outer loop
    vertex 19.6592582661046 36.58819043903068 3.0000000000000013
    vertex 18.660254050262015 38.99999997849202 1.4099832412739487e-15
    vertex 18.660254050262015 38.99999997849202 3.0000000000000013
  endloop
endfacet
facet normal 0.9914448614548519 0.1305261916044814 -0.0
  outer loop
    vertex 19.6592582661046 36.58819043903068 1.4099832412739487e-15
    vertex 19.999999999999996 33.99999999999999 3.0000000000000013
    vertex 19.999999999999996 33.99999999999999 1.4099832412739487e-15
  endloop
endfacet
facet normal 0.9914448614548519 0.1305261916044814 -0.0
  outer loop
    vertex 19.999999999999996 33.99999999999999 3.0000000000000013
    vertex 19.6592582661046 36.58819043903068 1.4099832412739487e-15
    vertex 19.6592582661046 36.58819043903068 3.0000000000000013
  endloop
endfacet
facet normal -3.0761063398421434e-33 9.020570969043909e-34 1.0
  outer loop
    vertex 31.0 0.0 3.0000000000000013
    vertex 2.8199664825478975e-15 34.000000149011605 3.0000000000000013
    vertex 0.0 0.0 3.0000000000000013
  endloop
endfacet
facet normal -3.0761063398421434e-33 9.020570969043909e-34 1.0
  outer loop
    vertex 2.8199664825478975e-15 34.000000149011605 3.0000000000000013
    vertex 31.0 0.0 3.0000000000000013
    vertex 0.3407417724624421 36.588190582964856 3.0000000000000013
  endloop
endfacet
facet normal -3.0761063398421434e-33 9.020570969043909e-34 1.0
  outer loop
    vertex 0.3407417724624421 36.588190582964856 3.0000000000000013
    vertex 31.0 0.0 3.0000000000000013
    vertex 1.3397460242437875 39.00000010753986 3.0000000000000013
  endloop
endfacet
facet normal -3.0761063398421434e-33 9.020570969043909e-34 1.0
  outer loop
    vertex 1.3397460242437875 39.00000010753986 3.0000000000000013
    vertex 31.0 0.0 3.0000000000000013
    vertex 19.999999999999996 15.0 3.0000000000000013
  endloop
endfacet
facet normal -3.0761063398421434e-33 9.020570969043909e-34 1.0
  outer loop
    vertex 1.3397460242437875 39.00000010753986 3.0000000000000013
    vertex 19.999999999999996 15.0 3.0000000000000013
    vertex 2.928932267159869 41.07106789089081 3.0000000000000013
  endloop
endfacet
facet normal -3.0761063398421434e-33 9.020570969043909e-34 1.0
  outer loop
    vertex 2.928932267159869 41.07106789089081 3.0000000000000013
    vertex 19.999999999999996 15.0 3.0000000000000013
    vertex 5.000000086031895 42.660254087514915 3.0000000000000013
  endloop
endfacet
facet normal -3.0761063398421434e-33 9.020570969043909e-34 1.0
  outer loop
    vertex 5.000000086031895 42.660254087514915 3.0000000000000013
    vertex 19.999999999999996 15.0 3.0000000000000013
    vertex 7.4118096329363885 43.65925828538812 3.0000000000000013
  endloop
endfacet
facet normal -3.0761063398421434e-33 9.020570969043909e-34 1.0
  outer loop
    vertex 7.4118096329363885 43.65925828538812 3.0000000000000013
    vertex 19.999999999999996 15.0 3.0000000000000013
    vertex 10.000000074505806 43.99999999999999 3.0000000000000013
  endloop
endfacet
facet normal -3.0761063398421434e-33 9.020570969043909e-34 1.0
  outer loop
    vertex 10.000000074505806 43.99999999999999 3.0000000000000013
    vertex 19.999999999999996 15.0 3.0000000000000013
    vertex 12.588190510997775 43.659258246821075 3.0000000000000013
  endloop
endfacet
facet normal -3.0761063398421434e-33 9.020570969043909e-34 1.0
  outer loop
    vertex 12.588190510997775 43.659258246821075 3.0000000000000013
    vertex 19.999999999999996 15.0 3.0000000000000013
    vertex 15.000000043015945 42.66025401300911 3.0000000000000013
  endloop
endfacet
facet normal -3.0761063398421434e-33 9.020570969043909e-34 1.0
  outer loop
    vertex 15.000000043015945 42.66025401300911 3.0000000000000013
    vertex 19.999999999999996 15.0 3.0000000000000013
    vertex 17.071067838207252 41.07106778552369 3.0000000000000013
  endloop
endfacet
facet normal -3.0761063398421434e-33 9.020570969043909e-34 1.0
  outer loop
    vertex 17.071067838207252 41.07106778552369 3.0000000000000013
    vertex 19.999999999999996 15.0 3.0000000000000013
    vertex 18.660254050262015 38.99999997849202 3.0000000000000013
  endloop
endfacet
facet normal -3.0761063398421434e-33 9.020570969043909e-34 1.0
  outer loop
    vertex 18.660254050262015 38.99999997849202 3.0000000000000013
    vertex 19.999999999999996 15.0 3.0000000000000013
    vertex 19.6592582661046 36.58819043903068 3.0000000000000013
  endloop
endfacet
facet normal -3.0761063398421434e-33 9.020570969043909e-34 1.0
  outer loop
    vertex 19.999999999999996 15.0 3.0000000000000013
    vertex 31.0 0.0 3.0000000000000013
    vertex 31.0 15.0 3.0000000000000013
  endloop
endfacet
facet normal -3.0761063398421434e-33 9.020570969043909e-34 1.0
  outer loop
    vertex 19.999999999999996 33.99999999999999 3.0000000000000013
    vertex 19.6592582661046 36.58819043903068 3.0000000000000013
    vertex 19.999999999999996 15.0 3.0000000000000013
  endloop
endfacet
facet normal 1.4865638007041633e-16 6.266592183439771e-17 1.0
  outer loop
    vertex 31.0 6.266592183439771e-17 14.000000000000002
    vertex 38.01507575950825 6.0150757595082505 14.000000000000002
    vertex 31.0 15.0 14.000000000000002
  endloop
endfacet
facet normal 1.4865638007041633e-16 6.266592183439771e-17 1.0
  outer loop
    vertex 38.01507575950825 6.0150757595082505 14.000000000000002
    vertex 31.0 6.266592183439771e-17 14.000000000000002
    vertex 38.45 5.681346652052679 14.000000000000002
  endloop
endfacet
facet normal 1.4865638007041633e-16 6.266592183439771e-17 1.0
  outer loop
    vertex 38.45 5.681346652052679 14.000000000000002
    vertex 31.0 6.266592183439771e-17 14.000000000000002
    vertex 50.0 6.266592183439771e-17 14.0
  endloop
endfacet
facet normal 1.4865638007041633e-16 6.266592183439771e-17 1.0
  outer loop
    vertex 31.0 15.0 14.000000000000002
    vertex 38.01507575950825 6.0150757595082505 14.000000000000002
    vertex 37.681346652052675 6.449999999999999 14.000000000000002
  endloop
endfacet
facet normal 1.4865638007041633e-16 6.266592183439771e-17 1.0
  outer loop
    vertex 31.0 15.0 14.000000000000002
    vertex 37.681346652052675 6.449999999999999 14.000000000000002
    vertex 37.47155576479296 6.956480005284706 14.000000000000002
  endloop
endfacet
facet normal 1.4865638007041633e-16 6.266592183439771e-17 1.0
  outer loop
    vertex 31.0 15.0 14.000000000000002
    vertex 37.47155576479296 6.956480005284706 14.000000000000002
    vertex 37.4 7.5 14.000000000000002
  endloop
endfacet
facet normal 1.4865638007041633e-16 6.266592183439771e-17 1.0
  outer loop
    vertex 38.45 5.681346652052679 14.000000000000002
    vertex 50.0 6.266592183439771e-17 14.0
    vertex 38.95648000528471 5.471555764792957 14.000000000000002
  endloop
endfacet
facet normal 1.4865638007041633e-16 6.266592183439771e-17 1.0
  outer loop
    vertex 38.95648000528471 5.471555764792957 14.000000000000002
    vertex 50.0 6.266592183439771e-17 14.0
    vertex 39.5 5.4 14.000000000000002
  endloop
endfacet
facet normal 1.4865638007041633e-16 6.266592183439771e-17 1.0
  outer loop
    vertex 39.5 5.4 14.000000000000002
    vertex 50.0 6.266592183439771e-17 14.0
    vertex 40.0435199947153 5.471555764792957 14.000000000000002
  endloop
endfacet
facet normal 1.4865638007041633e-16 6.266592183439771e-17 1.0
  outer loop
    vertex 40.0435199947153 5.471555764792957 14.000000000000002
    vertex 50.0 6.266592183439771e-17 14.0
    vertex 40.550000000000004 5.681346652052679 14.000000000000002
  endloop
endfacet
facet normal 1.4865638007041633e-16 6.266592183439771e-17 1.0
  outer loop
    vertex 40.550000000000004 5.681346652052679 14.000000000000002
    vertex 50.0 6.266592183439771e-17 14.0
    vertex 40.98492424049175 6.0150757595082505 14.000000000000002
  endloop
endfacet
facet normal 1.4865638007041633e-16 6.266592183439771e-17 1.0
  outer loop
    vertex 40.98492424049175 6.0150757595082505 14.000000000000002
    vertex 50.0 6.266592183439771e-17 14.0
    vertex 41.318653347947325 6.450000000000002 14.000000000000002
  endloop
endfacet
facet normal 1.4865638007041633e-16 6.266592183439771e-17 1.0
  outer loop
    vertex 41.318653347947325 6.450000000000002 14.000000000000002
    vertex 50.0 6.266592183439771e-17 14.0
    vertex 41.52844423520705 6.956480005284707 14.000000000000002
  endloop
endfacet
facet normal 1.4865638007041633e-16 6.266592183439771e-17 1.0
  outer loop
    vertex 41.52844423520705 6.956480005284707 14.000000000000002
    vertex 50.0 6.266592183439771e-17 14.0
    vertex 41.6 7.5 14.000000000000002
  endloop
endfacet
facet normal 1.4865638007041633e-16 6.266592183439771e-17 1.0
  outer loop
    vertex 31.0 15.0 14.000000000000002
    vertex 38.449999999999996 9.318653347947322 14.000000000000002
    vertex 50.0 15.0 13.999999999999996
  endloop
endfacet
facet normal 1.4865638007041633e-16 6.266592183439771e-17 1.0
  outer loop
    vertex 38.449999999999996 9.318653347947322 14.000000000000002
    vertex 31.0 15.0 14.000000000000002
    vertex 38.01507575950825 8.98492424049175 14.000000000000002
  endloop
endfacet
facet normal 1.4865638007041633e-16 6.266592183439771e-17 1.0
  outer loop
    vertex 38.01507575950825 8.98492424049175 14.000000000000002
    vertex 31.0 15.0 14.000000000000002
    vertex 37.681346652052675 8.55 14.000000000000002
  endloop
endfacet
facet normal 1.4865638007041633e-16 6.266592183439771e-17 1.0
  outer loop
    vertex 37.681346652052675 8.55 14.000000000000002
    vertex 31.0 15.0 14.000000000000002
    vertex 37.47155576479296 8.043519994715293 14.000000000000002
  endloop
endfacet
facet normal 1.4865638007041633e-16 6.266592183439771e-17 1.0
  outer loop
    vertex 37.47155576479296 8.043519994715293 14.000000000000002
    vertex 31.0 15.0 14.000000000000002
    vertex 37.4 7.5 14.000000000000002
  endloop
endfacet
facet normal 1.4865638007041633e-16 6.266592183439771e-17 1.0
  outer loop
    vertex 50.0 15.0 13.999999999999996
    vertex 38.449999999999996 9.318653347947322 14.000000000000002
    vertex 38.95648000528471 9.528444235207044 14.000000000000002
  endloop
endfacet
facet normal 1.4865638007041633e-16 6.266592183439771e-17 1.0
  outer loop
    vertex 50.0 15.0 13.999999999999996
    vertex 38.95648000528471 9.528444235207044 14.000000000000002
    vertex 39.5 9.600000000000001 14.000000000000002
  endloop
endfacet
facet normal 1.4865638007041633e-16 6.266592183439771e-17 1.0
  outer loop
    vertex 50.0 15.0 13.999999999999996
    vertex 39.5 9.600000000000001 14.000000000000002
    vertex 40.0435199947153 9.528444235207044 14.000000000000002
  endloop
endfacet
facet normal 1.4865638007041633e-16 6.266592183439771e-17 1.0
  outer loop
    vertex 50.0 15.0 13.999999999999996
    vertex 40.0435199947153 9.528444235207044 14.000000000000002
    vertex 40.55 9.318653347947322 14.000000000000002
  endloop
endfacet
facet normal 1.4865638007041633e-16 6.266592183439771e-17 1.0
  outer loop
    vertex 50.0 15.0 13.999999999999996
    vertex 40.55 9.318653347947322 14.000000000000002
    vertex 40.98492424049175 8.98492424049175 14.000000000000002
  endloop
endfacet
facet normal 1.4865638007041633e-16 6.266592183439771e-17 1.0
  outer loop
    vertex 50.0 15.0 13.999999999999996
    vertex 40.98492424049175 8.98492424049175 14.000000000000002
    vertex 41.31865334794732 8.55 14.000000000000002
  endloop
endfacet
facet normal 1.4865638007041633e-16 6.266592183439771e-17 1.0
  outer loop
    vertex 50.0 15.0 13.999999999999996
    vertex 41.31865334794732 8.55 14.000000000000002
    vertex 41.52844423520705 8.043519994715295 14.000000000000002
  endloop
endfacet
facet normal 1.4865638007041633e-16 6.266592183439771e-17 1.0
  outer loop
    vertex 50.0 15.0 13.999999999999996
    vertex 41.52844423520705 8.043519994715295 14.000000000000002
    vertex 41.6 7.5 14.000000000000002
  endloop
endfacet
facet normal 1.4865638007041633e-16 6.266592183439771e-17 1.0
  outer loop
    vertex 50.0 15.0 13.999999999999996
    vertex 41.6 7.5 14.000000000000002
    vertex 50.0 6.266592183439771e-17 14.0
  endloop
endfacet
facet normal -1.0 -0.0 -0.0
  outer loop
    vertex 31.0 6.266592183439771e-17 14.000000000000002
    vertex 31.0 15.0 3.0000000000000013
    vertex 31.0 0.0 3.0000000000000013
  endloop
endfacet
facet normal -1.0 -0.0 -0.0
  outer loop
    vertex 31.0 15.0 3.0000000000000013
    vertex 31.0 6.266592183439771e-17 14.000000000000002
    vertex 31.0 15.0 14.000000000000002
  endloop
endfacet
facet normal 0.0 -1.0 0.0
  outer loop
    vertex 50.0 0.0 1.4099832412739487e-15
    vertex 31.0 0.0 3.0000000000000013
    vertex 0.0 0.0 1.4099832412739487e-15
  endloop
endfacet
facet normal 0.0 -1.0 0.0
  outer loop
    vertex 31.0 0.0 3.0000000000000013
    vertex 50.0 0.0 1.4099832412739487e-15
    vertex 50.0 6.266592183439771e-17 14.0
  endloop
endfacet
facet normal 0.0 -1.0 0.0
  outer loop
    vertex 31.0 0.0 3.0000000000000013
    vertex 50.0 6.266592183439771e-17 14.0
    vertex 31.0 6.266592183439771e-17 14.000000000000002
  endloop
endfacet
facet normal 0.0 -1.0 0.0
  outer loop
    vertex 0.0 0.0 3.0000000000000013
    vertex 0.0 0.0 1.4099832412739487e-15
    vertex 31.0 0.0 3.0000000000000013
  endloop
endfacet
facet normal 1.0 -0.0 -0.0
  outer loop
    vertex 50.0 15.0 1.4099832412739487e-15
    vertex 50.0 6.266592183439771e-17 14.0
    vertex 50.0 0.0 1.4099832412739487e-15
  endloop
endfacet
facet normal 1.0 -0.0 -0.0
  outer loop
    vertex 50.0 6.266592183439771e-17 14.0
    vertex 50.0 15.0 1.4099832412739487e-15
    vertex 50.0 15.0 13.999999999999996
  endloop
endfacet
facet normal -0.0 1.0 -0.0
  outer loop
    vertex 19.999999999999996 15.0 3.0000000000000013
    vertex 50.0 15.0 1.4099832412739487e-15
    vertex 19.999999999999996 15.0 1.4099832412739487e-15
  endloop
endfacet
facet normal -0.0 1.0 -0.0
  outer loop
    vertex 50.0 15.0 1.4099832412739487e-15
    vertex 19.999999999999996 15.0 3.0000000000000013
    vertex 31.0 15.0 3.0000000000000013
  endloop
endfacet
facet normal -0.0 1.0 -0.0
  outer loop
    vertex 50.0 15.0 1.4099832412739487e-15
    vertex 31.0 15.0 3.0000000000000013
    vertex 50.0 15.0 13.999999999999996
  endloop
endfacet
facet normal -0.0 1.0 -0.0
  outer loop
    vertex 50.0 15.0 13.999999999999996
    vertex 31.0 15.0 3.0000000000000013
    vertex 31.0 15.0 14.000000000000002
  endloop
endfacet
endsolid servoSproketSupportCenterV2
